G04 #@! TF.FileFunction,Soldermask,Bot*
%FSLAX46Y46*%
G04 Gerber Fmt 4.6, Leading zero omitted, Abs format (unit mm)*
G04 Created by KiCad (PCBNEW 4.0.7) date 05/26/18 22:05:49*
%MOMM*%
%LPD*%
G01*
G04 APERTURE LIST*
%ADD10C,0.100000*%
%ADD11C,2.000000*%
%ADD12R,2.100000X2.100000*%
%ADD13O,2.100000X2.100000*%
%ADD14R,2.200000X2.200000*%
%ADD15C,2.200000*%
%ADD16C,2.100000*%
%ADD17O,2.000000X2.000000*%
%ADD18C,2.400000*%
%ADD19R,2.000000X2.000000*%
%ADD20O,2.600000X4.400000*%
%ADD21O,4.400000X2.600000*%
G04 APERTURE END LIST*
D10*
D11*
X105410000Y-77470000D03*
X100410000Y-77470000D03*
X105410000Y-92710000D03*
X100410000Y-92710000D03*
X110490000Y-59690000D03*
X110490000Y-64690000D03*
X104140000Y-49530000D03*
X109140000Y-49530000D03*
X109220000Y-44450000D03*
X104220000Y-44450000D03*
X91440000Y-49530000D03*
X96440000Y-49530000D03*
X121920000Y-44450000D03*
X116920000Y-44450000D03*
X116840000Y-49530000D03*
X121840000Y-49530000D03*
X91440000Y-44450000D03*
X96440000Y-44450000D03*
X87630000Y-59690000D03*
X87630000Y-64690000D03*
X102870000Y-59690000D03*
X102870000Y-64690000D03*
D12*
X77470000Y-134620000D03*
D13*
X77470000Y-137160000D03*
X80010000Y-134620000D03*
X80010000Y-137160000D03*
X82550000Y-134620000D03*
X82550000Y-137160000D03*
X85090000Y-134620000D03*
X85090000Y-137160000D03*
X87630000Y-134620000D03*
X87630000Y-137160000D03*
X90170000Y-134620000D03*
X90170000Y-137160000D03*
X92710000Y-134620000D03*
X92710000Y-137160000D03*
X95250000Y-134620000D03*
X95250000Y-137160000D03*
X97790000Y-134620000D03*
X97790000Y-137160000D03*
X100330000Y-134620000D03*
X100330000Y-137160000D03*
X102870000Y-134620000D03*
X102870000Y-137160000D03*
X105410000Y-134620000D03*
X105410000Y-137160000D03*
X107950000Y-134620000D03*
X107950000Y-137160000D03*
X110490000Y-134620000D03*
X110490000Y-137160000D03*
X113030000Y-134620000D03*
X113030000Y-137160000D03*
X115570000Y-134620000D03*
X115570000Y-137160000D03*
X118110000Y-134620000D03*
X118110000Y-137160000D03*
X120650000Y-134620000D03*
X120650000Y-137160000D03*
X123190000Y-134620000D03*
X123190000Y-137160000D03*
X125730000Y-134620000D03*
X125730000Y-137160000D03*
X128270000Y-134620000D03*
X128270000Y-137160000D03*
X130810000Y-134620000D03*
X130810000Y-137160000D03*
X133350000Y-134620000D03*
X133350000Y-137160000D03*
X135890000Y-134620000D03*
X135890000Y-137160000D03*
X138430000Y-134620000D03*
X138430000Y-137160000D03*
D14*
X68580000Y-45720000D03*
D15*
X71120000Y-45720000D03*
D14*
X78740000Y-45720000D03*
D15*
X81280000Y-45720000D03*
D12*
X139700000Y-106680000D03*
D13*
X139700000Y-109220000D03*
X139700000Y-111760000D03*
X139700000Y-114300000D03*
X139700000Y-116840000D03*
X139700000Y-119380000D03*
X139700000Y-121920000D03*
X139700000Y-124460000D03*
D12*
X162560000Y-124460000D03*
D13*
X162560000Y-121920000D03*
X162560000Y-119380000D03*
X162560000Y-116840000D03*
X162560000Y-114300000D03*
X162560000Y-111760000D03*
X162560000Y-109220000D03*
X162560000Y-106680000D03*
D16*
X105410000Y-85090000D03*
X100410000Y-85090000D03*
X95250000Y-59690000D03*
X95250000Y-64690000D03*
D11*
X71120000Y-68580000D03*
D17*
X71120000Y-55880000D03*
D11*
X63500000Y-68580000D03*
D17*
X63500000Y-55880000D03*
D11*
X55880000Y-55880000D03*
D17*
X55880000Y-68580000D03*
D11*
X78740000Y-55880000D03*
D17*
X78740000Y-68580000D03*
D11*
X144780000Y-116840000D03*
D17*
X157480000Y-116840000D03*
D11*
X144780000Y-124460000D03*
D17*
X157480000Y-124460000D03*
D11*
X144780000Y-93980000D03*
D17*
X157480000Y-93980000D03*
D11*
X144780000Y-86360000D03*
D17*
X157480000Y-86360000D03*
D11*
X144780000Y-109220000D03*
D17*
X157480000Y-109220000D03*
D11*
X144780000Y-101600000D03*
D17*
X157480000Y-101600000D03*
D18*
X60960000Y-43760000D03*
X60960000Y-48260000D03*
X54460000Y-43760000D03*
X54460000Y-48260000D03*
D19*
X56388000Y-125476000D03*
D17*
X84328000Y-117856000D03*
X58928000Y-125476000D03*
X81788000Y-117856000D03*
X61468000Y-125476000D03*
X79248000Y-117856000D03*
X64008000Y-125476000D03*
X76708000Y-117856000D03*
X66548000Y-125476000D03*
X74168000Y-117856000D03*
X69088000Y-125476000D03*
X71628000Y-117856000D03*
X71628000Y-125476000D03*
X69088000Y-117856000D03*
X74168000Y-125476000D03*
X66548000Y-117856000D03*
X76708000Y-125476000D03*
X64008000Y-117856000D03*
X79248000Y-125476000D03*
X61468000Y-117856000D03*
X81788000Y-125476000D03*
X58928000Y-117856000D03*
X84328000Y-125476000D03*
X56388000Y-117856000D03*
D19*
X96012000Y-102616000D03*
D17*
X103632000Y-125476000D03*
X96012000Y-105156000D03*
X103632000Y-122936000D03*
X96012000Y-107696000D03*
X103632000Y-120396000D03*
X96012000Y-110236000D03*
X103632000Y-117856000D03*
X96012000Y-112776000D03*
X103632000Y-115316000D03*
X96012000Y-115316000D03*
X103632000Y-112776000D03*
X96012000Y-117856000D03*
X103632000Y-110236000D03*
X96012000Y-120396000D03*
X103632000Y-107696000D03*
X96012000Y-122936000D03*
X103632000Y-105156000D03*
X96012000Y-125476000D03*
X103632000Y-102616000D03*
D19*
X56388000Y-108712000D03*
D17*
X84328000Y-101092000D03*
X58928000Y-108712000D03*
X81788000Y-101092000D03*
X61468000Y-108712000D03*
X79248000Y-101092000D03*
X64008000Y-108712000D03*
X76708000Y-101092000D03*
X66548000Y-108712000D03*
X74168000Y-101092000D03*
X69088000Y-108712000D03*
X71628000Y-101092000D03*
X71628000Y-108712000D03*
X69088000Y-101092000D03*
X74168000Y-108712000D03*
X66548000Y-101092000D03*
X76708000Y-108712000D03*
X64008000Y-101092000D03*
X79248000Y-108712000D03*
X61468000Y-101092000D03*
X81788000Y-108712000D03*
X58928000Y-101092000D03*
X84328000Y-108712000D03*
X56388000Y-101092000D03*
D19*
X115824000Y-77216000D03*
D17*
X131064000Y-125476000D03*
X115824000Y-79756000D03*
X131064000Y-122936000D03*
X115824000Y-82296000D03*
X131064000Y-120396000D03*
X115824000Y-84836000D03*
X131064000Y-117856000D03*
X115824000Y-87376000D03*
X131064000Y-115316000D03*
X115824000Y-89916000D03*
X131064000Y-112776000D03*
X115824000Y-92456000D03*
X131064000Y-110236000D03*
X115824000Y-94996000D03*
X131064000Y-107696000D03*
X115824000Y-97536000D03*
X131064000Y-105156000D03*
X115824000Y-100076000D03*
X131064000Y-102616000D03*
X115824000Y-102616000D03*
X131064000Y-100076000D03*
X115824000Y-105156000D03*
X131064000Y-97536000D03*
X115824000Y-107696000D03*
X131064000Y-94996000D03*
X115824000Y-110236000D03*
X131064000Y-92456000D03*
X115824000Y-112776000D03*
X131064000Y-89916000D03*
X115824000Y-115316000D03*
X131064000Y-87376000D03*
X115824000Y-117856000D03*
X131064000Y-84836000D03*
X115824000Y-120396000D03*
X131064000Y-82296000D03*
X115824000Y-122936000D03*
X131064000Y-79756000D03*
X115824000Y-125476000D03*
X131064000Y-77216000D03*
D19*
X147320000Y-71120000D03*
D17*
X154940000Y-78740000D03*
X147320000Y-73660000D03*
X154940000Y-76200000D03*
X147320000Y-76200000D03*
X154940000Y-73660000D03*
X147320000Y-78740000D03*
X154940000Y-71120000D03*
D19*
X56388000Y-91948000D03*
D17*
X89408000Y-76708000D03*
X58928000Y-91948000D03*
X86868000Y-76708000D03*
X61468000Y-91948000D03*
X84328000Y-76708000D03*
X64008000Y-91948000D03*
X81788000Y-76708000D03*
X66548000Y-91948000D03*
X79248000Y-76708000D03*
X69088000Y-91948000D03*
X76708000Y-76708000D03*
X71628000Y-91948000D03*
X74168000Y-76708000D03*
X74168000Y-91948000D03*
X71628000Y-76708000D03*
X76708000Y-91948000D03*
X69088000Y-76708000D03*
X79248000Y-91948000D03*
X66548000Y-76708000D03*
X81788000Y-91948000D03*
X64008000Y-76708000D03*
X84328000Y-91948000D03*
X61468000Y-76708000D03*
X86868000Y-91948000D03*
X58928000Y-76708000D03*
X89408000Y-91948000D03*
X56388000Y-76708000D03*
D20*
X137160000Y-46990000D03*
D21*
X137660000Y-54290000D03*
D20*
X144260000Y-49890000D03*
X146960000Y-51090000D03*
D21*
X141760000Y-43090000D03*
D20*
X152400000Y-46990000D03*
D21*
X152900000Y-54290000D03*
D20*
X159500000Y-49890000D03*
X162200000Y-51090000D03*
D21*
X157000000Y-43090000D03*
M02*
