M48
;DRILL file {KiCad 4.0.7} date 05/26/18 22:05:54
;FORMAT={-:-/ absolute / inch / decimal}
FMAT,2
INCH,TZ
T1C0.016
T2C0.031
T3C0.035
T4C0.039
T5C0.043
T6C0.051
%
G90
G05
M72
T1
X2.18Y-3.86
X2.23Y-4.19
X2.32Y-4.38
X2.34Y-5.09
X2.4Y-4.86
X2.41Y-3.53
X2.41Y-4.75
X2.44Y-5.14
X2.46Y-2.88
X2.52Y-3.72
X2.54Y-4.72
X2.56Y-3.38
X2.57Y-1.89
X2.61Y-4.07
X2.63Y-4.83
X2.68Y-4.11
X2.71Y-3.72
X2.72Y-4.38
X2.76Y-2.88
X2.78Y-4.11
X2.82Y-3.54
X2.83Y-3.88
X2.84Y-2.8
X2.84Y-2.92
X2.86Y-4.2
X2.91Y-2.21
X2.91Y-3.54
X2.93Y-3.21
X2.93Y-3.31
X2.93Y-3.88
X2.93Y-4.38
X2.94Y-5.59
X2.95Y-2.92
X2.96Y-4.2
X2.96Y-5.47
X2.96Y-5.52
X2.98Y-5.06
X2.98Y-5.32
X2.99Y-2.29
X3.01Y-3.29
X3.01Y-3.35
X3.03Y-4.38
X3.04Y-3.1
X3.04Y-4.2
X3.07Y-2.51
X3.09Y-3.15
X3.11Y-3.81
X3.13Y-2.92
X3.13Y-4.38
X3.14Y-3.54
X3.14Y-5.5
X3.21Y-3.88
X3.22Y-2.62
X3.23Y-2.92
X3.23Y-3.72
X3.26Y-3.88
X3.27Y-2.43
X3.29Y-2.29
X3.32Y-5.04
X3.36Y-5.06
X3.38Y-2.92
X3.38Y-5.1
X3.41Y-3.26
X3.41Y-3.8
X3.41Y-4.54
X3.42Y-3.94
X3.42Y-4.74
X3.43Y-2.92
X3.44Y-3.76
X3.45Y-5.5
X3.46Y-4.85
X3.46Y-4.9
X3.53Y-3.14
X3.55Y-2.15
X3.55Y-5.5
X3.57Y-4.85
X3.57Y-4.9
X3.59Y-4.55
X3.62Y-3.52
X3.63Y-2.47
X3.64Y-3.34
X3.65Y-5.5
X3.67Y-4.09
X3.68Y-4.26
X3.68Y-4.54
X3.68Y-4.64
X3.7Y-2.05
X3.72Y-3.36
X3.73Y-3.23
X3.76Y-3.14
X3.76Y-3.61
X3.79Y-5.04
X3.8Y-3.34
X3.86Y-4.63
X3.86Y-4.69
X3.86Y-4.95
X3.89Y-2.24
X3.89Y-3.64
X3.91Y-3.53
X3.96Y-1.8
X3.98Y-3.94
X4.02Y-3.64
X4.04Y-3.38
X4.05Y-3.76
X4.07Y-5.16
X4.08Y-5.04
X4.11Y-3.15
X4.12Y-3.93
X4.18Y-3.94
X4.18Y-4.24
X4.18Y-4.34
X4.18Y-4.74
X4.2Y-4.
X4.23Y-4.63
X4.25Y-3.53
X4.26Y-5.63
X4.27Y-4.15
X4.34Y-4.68
X4.34Y-5.55
X4.36Y-3.64
X4.37Y-4.75
X4.4Y-3.84
X4.4Y-4.62
X4.42Y-4.13
X4.43Y-4.71
X4.45Y-2.57
X4.45Y-5.5
X4.46Y-3.74
X4.6Y-2.05
X4.64Y-3.9
X4.75Y-2.93
X4.77Y-1.85
X4.8Y-3.48
X4.84Y-1.85
X4.84Y-4.69
X4.84Y-4.74
X4.85Y-3.33
X4.85Y-3.83
X4.85Y-4.63
X4.86Y-1.94
X4.86Y-3.67
X4.86Y-4.06
X4.86Y-4.2
X4.86Y-4.5
X4.92Y-3.4
X4.94Y-3.75
X4.94Y-3.9
X4.94Y-4.28
X4.94Y-4.42
X4.99Y-2.
X4.99Y-3.75
X5.Y-4.84
X5.05Y-4.39
X5.06Y-3.18
X5.07Y-4.21
X5.08Y-4.02
X5.08Y-4.16
X5.2Y-1.89
X5.26Y-3.38
X5.26Y-3.94
X5.26Y-4.25
X5.27Y-3.99
X5.29Y-1.8
X5.39Y-4.29
X5.39Y-4.59
X5.45Y-1.96
X5.45Y-3.71
X5.49Y-3.67
X5.51Y-1.9
X5.53Y-3.65
X5.59Y-3.57
X5.61Y-3.79
X5.61Y-4.21
X5.61Y-4.49
X5.62Y-3.4
X5.73Y-3.81
X5.79Y-3.24
X5.79Y-4.45
X5.81Y-3.37
X5.81Y-4.19
X5.9Y-3.2
X5.91Y-3.59
X5.91Y-4.57
X5.92Y-4.
X5.95Y-3.2
X5.95Y-3.51
X5.96Y-3.09
X6.09Y-3.89
X6.09Y-4.49
T2
X2.2Y-2.2
X2.2Y-2.7
X2.22Y-3.02
X2.22Y-3.62
X2.22Y-3.98
X2.22Y-4.28
X2.22Y-4.64
X2.22Y-4.94
X2.32Y-3.02
X2.32Y-3.62
X2.32Y-3.98
X2.32Y-4.28
X2.32Y-4.64
X2.32Y-4.94
X2.42Y-3.02
X2.42Y-3.62
X2.42Y-3.98
X2.42Y-4.28
X2.42Y-4.64
X2.42Y-4.94
X2.5Y-2.2
X2.5Y-2.7
X2.52Y-3.02
X2.52Y-3.62
X2.52Y-3.98
X2.52Y-4.28
X2.52Y-4.64
X2.52Y-4.94
X2.62Y-3.02
X2.62Y-3.62
X2.62Y-3.98
X2.62Y-4.28
X2.62Y-4.64
X2.62Y-4.94
X2.72Y-3.02
X2.72Y-3.62
X2.72Y-3.98
X2.72Y-4.28
X2.72Y-4.64
X2.72Y-4.94
X2.8Y-2.2
X2.8Y-2.7
X2.82Y-3.02
X2.82Y-3.62
X2.82Y-3.98
X2.82Y-4.28
X2.82Y-4.64
X2.82Y-4.94
X2.92Y-3.02
X2.92Y-3.62
X2.92Y-3.98
X2.92Y-4.28
X2.92Y-4.64
X2.92Y-4.94
X3.02Y-3.02
X3.02Y-3.62
X3.02Y-3.98
X3.02Y-4.28
X3.02Y-4.64
X3.02Y-4.94
X3.1Y-2.2
X3.1Y-2.7
X3.12Y-3.02
X3.12Y-3.62
X3.12Y-3.98
X3.12Y-4.28
X3.12Y-4.64
X3.12Y-4.94
X3.22Y-3.02
X3.22Y-3.62
X3.22Y-3.98
X3.22Y-4.28
X3.22Y-4.64
X3.22Y-4.94
X3.32Y-3.02
X3.32Y-3.62
X3.32Y-3.98
X3.32Y-4.28
X3.32Y-4.64
X3.32Y-4.94
X3.42Y-3.02
X3.42Y-3.62
X3.45Y-2.35
X3.45Y-2.5469
X3.52Y-3.02
X3.52Y-3.62
X3.6Y-1.75
X3.6Y-1.95
X3.78Y-4.04
X3.78Y-4.14
X3.78Y-4.24
X3.78Y-4.34
X3.78Y-4.44
X3.78Y-4.54
X3.78Y-4.64
X3.78Y-4.74
X3.78Y-4.84
X3.78Y-4.94
X3.7969Y-1.75
X3.7969Y-1.95
X3.9531Y-3.05
X3.9531Y-3.65
X4.05Y-2.35
X4.05Y-2.5469
X4.08Y-4.04
X4.08Y-4.14
X4.08Y-4.24
X4.08Y-4.34
X4.08Y-4.44
X4.08Y-4.54
X4.08Y-4.64
X4.08Y-4.74
X4.08Y-4.84
X4.08Y-4.94
X4.1Y-1.95
X4.1031Y-1.75
X4.15Y-3.05
X4.15Y-3.65
X4.2969Y-1.95
X4.3Y-1.75
X4.35Y-2.35
X4.35Y-2.5469
X4.56Y-3.04
X4.56Y-3.14
X4.56Y-3.24
X4.56Y-3.34
X4.56Y-3.44
X4.56Y-3.54
X4.56Y-3.64
X4.56Y-3.74
X4.56Y-3.84
X4.56Y-3.94
X4.56Y-4.04
X4.56Y-4.14
X4.56Y-4.24
X4.56Y-4.34
X4.56Y-4.44
X4.56Y-4.54
X4.56Y-4.64
X4.56Y-4.74
X4.56Y-4.84
X4.56Y-4.94
X4.6Y-1.95
X4.6031Y-1.75
X4.7969Y-1.95
X4.8Y-1.75
X5.16Y-3.04
X5.16Y-3.14
X5.16Y-3.24
X5.16Y-3.34
X5.16Y-3.44
X5.16Y-3.54
X5.16Y-3.64
X5.16Y-3.74
X5.16Y-3.84
X5.16Y-3.94
X5.16Y-4.04
X5.16Y-4.14
X5.16Y-4.24
X5.16Y-4.34
X5.16Y-4.44
X5.16Y-4.54
X5.16Y-4.64
X5.16Y-4.74
X5.16Y-4.84
X5.16Y-4.94
X5.7Y-3.4
X5.7Y-3.7
X5.7Y-4.
X5.7Y-4.3
X5.7Y-4.6
X5.7Y-4.9
X5.8Y-2.8
X5.8Y-2.9
X5.8Y-3.
X5.8Y-3.1
X6.1Y-2.8
X6.1Y-2.9
X6.1Y-3.
X6.1Y-3.1
X6.2Y-3.4
X6.2Y-3.7
X6.2Y-4.
X6.2Y-4.3
X6.2Y-4.6
X6.2Y-4.9
T3
X2.7Y-1.8
X2.8Y-1.8
X3.1Y-1.8
X3.2Y-1.8
T4
X3.05Y-5.3
X3.05Y-5.4
X3.15Y-5.3
X3.15Y-5.4
X3.25Y-5.3
X3.25Y-5.4
X3.35Y-5.3
X3.35Y-5.4
X3.45Y-5.3
X3.45Y-5.4
X3.55Y-5.3
X3.55Y-5.4
X3.65Y-5.3
X3.65Y-5.4
X3.75Y-2.35
X3.75Y-2.5469
X3.75Y-5.3
X3.75Y-5.4
X3.85Y-5.3
X3.85Y-5.4
X3.95Y-5.3
X3.95Y-5.4
X3.9531Y-3.35
X4.05Y-5.3
X4.05Y-5.4
X4.15Y-3.35
X4.15Y-5.3
X4.15Y-5.4
X4.25Y-5.3
X4.25Y-5.4
X4.35Y-5.3
X4.35Y-5.4
X4.45Y-5.3
X4.45Y-5.4
X4.55Y-5.3
X4.55Y-5.4
X4.65Y-5.3
X4.65Y-5.4
X4.75Y-5.3
X4.75Y-5.4
X4.85Y-5.3
X4.85Y-5.4
X4.95Y-5.3
X4.95Y-5.4
X5.05Y-5.3
X5.05Y-5.4
X5.15Y-5.3
X5.15Y-5.4
X5.25Y-5.3
X5.25Y-5.4
X5.35Y-5.3
X5.35Y-5.4
X5.45Y-5.3
X5.45Y-5.4
X5.5Y-4.2
X5.5Y-4.3
X5.5Y-4.4
X5.5Y-4.5
X5.5Y-4.6
X5.5Y-4.7
X5.5Y-4.8
X5.5Y-4.9
X6.4Y-4.2
X6.4Y-4.3
X6.4Y-4.4
X6.4Y-4.5
X6.4Y-4.6
X6.4Y-4.7
X6.4Y-4.8
X6.4Y-4.9
T5
X2.1441Y-1.7228
X2.1441Y-1.9
X2.4Y-1.7228
X2.4Y-1.9
T6
X5.4Y-1.85
X5.4197Y-2.1374
X5.5811Y-1.6965
X5.6795Y-1.9642
X5.7858Y-2.0114
X6.Y-1.85
X6.0197Y-2.1374
X6.1811Y-1.6965
X6.2795Y-1.9642
X6.3858Y-2.0114
T0
M30
