G04 #@! TF.FileFunction,Copper,L1,Top,Signal*
%FSLAX46Y46*%
G04 Gerber Fmt 4.6, Leading zero omitted, Abs format (unit mm)*
G04 Created by KiCad (PCBNEW 4.0.7) date 05/26/18 22:05:49*
%MOMM*%
%LPD*%
G01*
G04 APERTURE LIST*
%ADD10C,0.100000*%
%ADD11C,1.600000*%
%ADD12R,1.700000X1.700000*%
%ADD13O,1.700000X1.700000*%
%ADD14R,1.800000X1.800000*%
%ADD15C,1.800000*%
%ADD16C,1.700000*%
%ADD17O,1.600000X1.600000*%
%ADD18C,2.000000*%
%ADD19R,1.600000X1.600000*%
%ADD20O,2.200000X4.000000*%
%ADD21O,4.000000X2.200000*%
%ADD22C,0.600000*%
%ADD23C,0.250000*%
G04 APERTURE END LIST*
D10*
D11*
X105410000Y-77470000D03*
X100410000Y-77470000D03*
X105410000Y-92710000D03*
X100410000Y-92710000D03*
X110490000Y-59690000D03*
X110490000Y-64690000D03*
X104140000Y-49530000D03*
X109140000Y-49530000D03*
X109220000Y-44450000D03*
X104220000Y-44450000D03*
X91440000Y-49530000D03*
X96440000Y-49530000D03*
X121920000Y-44450000D03*
X116920000Y-44450000D03*
X116840000Y-49530000D03*
X121840000Y-49530000D03*
X91440000Y-44450000D03*
X96440000Y-44450000D03*
X87630000Y-59690000D03*
X87630000Y-64690000D03*
X102870000Y-59690000D03*
X102870000Y-64690000D03*
D12*
X77470000Y-134620000D03*
D13*
X77470000Y-137160000D03*
X80010000Y-134620000D03*
X80010000Y-137160000D03*
X82550000Y-134620000D03*
X82550000Y-137160000D03*
X85090000Y-134620000D03*
X85090000Y-137160000D03*
X87630000Y-134620000D03*
X87630000Y-137160000D03*
X90170000Y-134620000D03*
X90170000Y-137160000D03*
X92710000Y-134620000D03*
X92710000Y-137160000D03*
X95250000Y-134620000D03*
X95250000Y-137160000D03*
X97790000Y-134620000D03*
X97790000Y-137160000D03*
X100330000Y-134620000D03*
X100330000Y-137160000D03*
X102870000Y-134620000D03*
X102870000Y-137160000D03*
X105410000Y-134620000D03*
X105410000Y-137160000D03*
X107950000Y-134620000D03*
X107950000Y-137160000D03*
X110490000Y-134620000D03*
X110490000Y-137160000D03*
X113030000Y-134620000D03*
X113030000Y-137160000D03*
X115570000Y-134620000D03*
X115570000Y-137160000D03*
X118110000Y-134620000D03*
X118110000Y-137160000D03*
X120650000Y-134620000D03*
X120650000Y-137160000D03*
X123190000Y-134620000D03*
X123190000Y-137160000D03*
X125730000Y-134620000D03*
X125730000Y-137160000D03*
X128270000Y-134620000D03*
X128270000Y-137160000D03*
X130810000Y-134620000D03*
X130810000Y-137160000D03*
X133350000Y-134620000D03*
X133350000Y-137160000D03*
X135890000Y-134620000D03*
X135890000Y-137160000D03*
X138430000Y-134620000D03*
X138430000Y-137160000D03*
D14*
X68580000Y-45720000D03*
D15*
X71120000Y-45720000D03*
D14*
X78740000Y-45720000D03*
D15*
X81280000Y-45720000D03*
D12*
X139700000Y-106680000D03*
D13*
X139700000Y-109220000D03*
X139700000Y-111760000D03*
X139700000Y-114300000D03*
X139700000Y-116840000D03*
X139700000Y-119380000D03*
X139700000Y-121920000D03*
X139700000Y-124460000D03*
D12*
X162560000Y-124460000D03*
D13*
X162560000Y-121920000D03*
X162560000Y-119380000D03*
X162560000Y-116840000D03*
X162560000Y-114300000D03*
X162560000Y-111760000D03*
X162560000Y-109220000D03*
X162560000Y-106680000D03*
D16*
X105410000Y-85090000D03*
X100410000Y-85090000D03*
X95250000Y-59690000D03*
X95250000Y-64690000D03*
D11*
X71120000Y-68580000D03*
D17*
X71120000Y-55880000D03*
D11*
X63500000Y-68580000D03*
D17*
X63500000Y-55880000D03*
D11*
X55880000Y-55880000D03*
D17*
X55880000Y-68580000D03*
D11*
X78740000Y-55880000D03*
D17*
X78740000Y-68580000D03*
D11*
X144780000Y-116840000D03*
D17*
X157480000Y-116840000D03*
D11*
X144780000Y-124460000D03*
D17*
X157480000Y-124460000D03*
D11*
X144780000Y-93980000D03*
D17*
X157480000Y-93980000D03*
D11*
X144780000Y-86360000D03*
D17*
X157480000Y-86360000D03*
D11*
X144780000Y-109220000D03*
D17*
X157480000Y-109220000D03*
D11*
X144780000Y-101600000D03*
D17*
X157480000Y-101600000D03*
D18*
X60960000Y-43760000D03*
X60960000Y-48260000D03*
X54460000Y-43760000D03*
X54460000Y-48260000D03*
D19*
X56388000Y-125476000D03*
D17*
X84328000Y-117856000D03*
X58928000Y-125476000D03*
X81788000Y-117856000D03*
X61468000Y-125476000D03*
X79248000Y-117856000D03*
X64008000Y-125476000D03*
X76708000Y-117856000D03*
X66548000Y-125476000D03*
X74168000Y-117856000D03*
X69088000Y-125476000D03*
X71628000Y-117856000D03*
X71628000Y-125476000D03*
X69088000Y-117856000D03*
X74168000Y-125476000D03*
X66548000Y-117856000D03*
X76708000Y-125476000D03*
X64008000Y-117856000D03*
X79248000Y-125476000D03*
X61468000Y-117856000D03*
X81788000Y-125476000D03*
X58928000Y-117856000D03*
X84328000Y-125476000D03*
X56388000Y-117856000D03*
D19*
X96012000Y-102616000D03*
D17*
X103632000Y-125476000D03*
X96012000Y-105156000D03*
X103632000Y-122936000D03*
X96012000Y-107696000D03*
X103632000Y-120396000D03*
X96012000Y-110236000D03*
X103632000Y-117856000D03*
X96012000Y-112776000D03*
X103632000Y-115316000D03*
X96012000Y-115316000D03*
X103632000Y-112776000D03*
X96012000Y-117856000D03*
X103632000Y-110236000D03*
X96012000Y-120396000D03*
X103632000Y-107696000D03*
X96012000Y-122936000D03*
X103632000Y-105156000D03*
X96012000Y-125476000D03*
X103632000Y-102616000D03*
D19*
X56388000Y-108712000D03*
D17*
X84328000Y-101092000D03*
X58928000Y-108712000D03*
X81788000Y-101092000D03*
X61468000Y-108712000D03*
X79248000Y-101092000D03*
X64008000Y-108712000D03*
X76708000Y-101092000D03*
X66548000Y-108712000D03*
X74168000Y-101092000D03*
X69088000Y-108712000D03*
X71628000Y-101092000D03*
X71628000Y-108712000D03*
X69088000Y-101092000D03*
X74168000Y-108712000D03*
X66548000Y-101092000D03*
X76708000Y-108712000D03*
X64008000Y-101092000D03*
X79248000Y-108712000D03*
X61468000Y-101092000D03*
X81788000Y-108712000D03*
X58928000Y-101092000D03*
X84328000Y-108712000D03*
X56388000Y-101092000D03*
D19*
X115824000Y-77216000D03*
D17*
X131064000Y-125476000D03*
X115824000Y-79756000D03*
X131064000Y-122936000D03*
X115824000Y-82296000D03*
X131064000Y-120396000D03*
X115824000Y-84836000D03*
X131064000Y-117856000D03*
X115824000Y-87376000D03*
X131064000Y-115316000D03*
X115824000Y-89916000D03*
X131064000Y-112776000D03*
X115824000Y-92456000D03*
X131064000Y-110236000D03*
X115824000Y-94996000D03*
X131064000Y-107696000D03*
X115824000Y-97536000D03*
X131064000Y-105156000D03*
X115824000Y-100076000D03*
X131064000Y-102616000D03*
X115824000Y-102616000D03*
X131064000Y-100076000D03*
X115824000Y-105156000D03*
X131064000Y-97536000D03*
X115824000Y-107696000D03*
X131064000Y-94996000D03*
X115824000Y-110236000D03*
X131064000Y-92456000D03*
X115824000Y-112776000D03*
X131064000Y-89916000D03*
X115824000Y-115316000D03*
X131064000Y-87376000D03*
X115824000Y-117856000D03*
X131064000Y-84836000D03*
X115824000Y-120396000D03*
X131064000Y-82296000D03*
X115824000Y-122936000D03*
X131064000Y-79756000D03*
X115824000Y-125476000D03*
X131064000Y-77216000D03*
D19*
X147320000Y-71120000D03*
D17*
X154940000Y-78740000D03*
X147320000Y-73660000D03*
X154940000Y-76200000D03*
X147320000Y-76200000D03*
X154940000Y-73660000D03*
X147320000Y-78740000D03*
X154940000Y-71120000D03*
D19*
X56388000Y-91948000D03*
D17*
X89408000Y-76708000D03*
X58928000Y-91948000D03*
X86868000Y-76708000D03*
X61468000Y-91948000D03*
X84328000Y-76708000D03*
X64008000Y-91948000D03*
X81788000Y-76708000D03*
X66548000Y-91948000D03*
X79248000Y-76708000D03*
X69088000Y-91948000D03*
X76708000Y-76708000D03*
X71628000Y-91948000D03*
X74168000Y-76708000D03*
X74168000Y-91948000D03*
X71628000Y-76708000D03*
X76708000Y-91948000D03*
X69088000Y-76708000D03*
X79248000Y-91948000D03*
X66548000Y-76708000D03*
X81788000Y-91948000D03*
X64008000Y-76708000D03*
X84328000Y-91948000D03*
X61468000Y-76708000D03*
X86868000Y-91948000D03*
X58928000Y-76708000D03*
X89408000Y-91948000D03*
X56388000Y-76708000D03*
D20*
X137160000Y-46990000D03*
D21*
X137660000Y-54290000D03*
D20*
X144260000Y-49890000D03*
X146960000Y-51090000D03*
D21*
X141760000Y-43090000D03*
D20*
X152400000Y-46990000D03*
D21*
X152900000Y-54290000D03*
D20*
X159500000Y-49890000D03*
X162200000Y-51090000D03*
D21*
X157000000Y-43090000D03*
D22*
X149860000Y-81280000D03*
X72136000Y-74168000D03*
X134366000Y-45720000D03*
X132080000Y-48006000D03*
X85344000Y-128524000D03*
X129032000Y-102108000D03*
X102616000Y-85852000D03*
X147066000Y-113030000D03*
X150114000Y-116078000D03*
X133604000Y-100076000D03*
X101092000Y-100076000D03*
X151130000Y-81280000D03*
X106172000Y-100076000D03*
X84328000Y-128016000D03*
X86868000Y-120396000D03*
X75692000Y-128524000D03*
X75692000Y-135128000D03*
X87884000Y-124460000D03*
X87884000Y-123190000D03*
X79756000Y-139700000D03*
X87630000Y-139700000D03*
X90678000Y-124460000D03*
X75184000Y-138938000D03*
X90170000Y-139700000D03*
X75184000Y-140208000D03*
X92710000Y-139700000D03*
X90678000Y-123190000D03*
X86868000Y-100076000D03*
X93472000Y-108204000D03*
X98044000Y-119126000D03*
X87376000Y-95504000D03*
X82042000Y-94488000D03*
X79756000Y-89916000D03*
X73914000Y-89916000D03*
X103632000Y-128016000D03*
X85852000Y-129540000D03*
X86614000Y-115316000D03*
X76962000Y-111252000D03*
X75184000Y-106680000D03*
X70612000Y-104394000D03*
X93472000Y-115316000D03*
X79502000Y-111252000D03*
X77216000Y-106680000D03*
X66294000Y-103378000D03*
X96266000Y-128016000D03*
X93472000Y-117856000D03*
X91186000Y-115570000D03*
X74422000Y-111252000D03*
X72644000Y-106680000D03*
X68072000Y-104394000D03*
X103378000Y-131064000D03*
X98044000Y-125730000D03*
X106172000Y-110236000D03*
X98044000Y-117602000D03*
X106172000Y-120396000D03*
X69088000Y-111252000D03*
X113030000Y-139700000D03*
X74676000Y-141986000D03*
X110236000Y-140970000D03*
X108204000Y-143002000D03*
X61976000Y-130556000D03*
X60960000Y-123444000D03*
X66802000Y-122682000D03*
X59436000Y-129286000D03*
X61214000Y-120650000D03*
X64516000Y-119888000D03*
X142494000Y-114046000D03*
X140462000Y-92710000D03*
X133604000Y-85852000D03*
X120650000Y-74422000D03*
X83566000Y-58166000D03*
X90170000Y-54610000D03*
X96520000Y-84836000D03*
X94488000Y-85344000D03*
X98806000Y-92456000D03*
X102108000Y-92456000D03*
X104648000Y-99822000D03*
X106680000Y-101600000D03*
X122936000Y-120396000D03*
X127000000Y-122936000D03*
X138430000Y-94234000D03*
X121920000Y-88392000D03*
X136906000Y-108966000D03*
X125476000Y-95250000D03*
X123444000Y-93218000D03*
X123444000Y-103124000D03*
X126746000Y-95250000D03*
X133858000Y-101346000D03*
X142494000Y-106934000D03*
X136906000Y-116586000D03*
X133604000Y-107950000D03*
X129032000Y-105664000D03*
X125476000Y-99060000D03*
X123190000Y-97282000D03*
X123190000Y-84582000D03*
X139446000Y-93218000D03*
X142494000Y-96266000D03*
X113284000Y-94996000D03*
X110744000Y-92456000D03*
X107950000Y-89662000D03*
X99314000Y-89662000D03*
X81788000Y-66548000D03*
X77978000Y-63754000D03*
X122936000Y-119126000D03*
X123444000Y-114300000D03*
X125476000Y-112268000D03*
X58928000Y-111252000D03*
X112522000Y-119634000D03*
X110998000Y-120650000D03*
X107442000Y-117602000D03*
X108458000Y-105410000D03*
X123190000Y-117602000D03*
X87122000Y-74168000D03*
X79502000Y-74168000D03*
X77216000Y-78740000D03*
X74422000Y-81534000D03*
X64008000Y-94488000D03*
X94742000Y-82042000D03*
X86614000Y-96520000D03*
X85852000Y-74168000D03*
X82042000Y-74168000D03*
X78486000Y-80010000D03*
X74422000Y-84074000D03*
X89662000Y-79756000D03*
X124968000Y-86360000D03*
X68834000Y-94488000D03*
X71628000Y-89916000D03*
X76454000Y-85090000D03*
X81534000Y-98552000D03*
X74422000Y-98552000D03*
X76454000Y-83566000D03*
X55372000Y-98044000D03*
X56642000Y-106426000D03*
X82804000Y-98552000D03*
X71882000Y-98552000D03*
X91948000Y-89408000D03*
X128778000Y-106934000D03*
X125476000Y-108712000D03*
X123444000Y-106680000D03*
X117856000Y-99060000D03*
X111760000Y-97536000D03*
X104394000Y-80010000D03*
X95504000Y-79756000D03*
X83058000Y-61722000D03*
X75946000Y-58166000D03*
X73914000Y-56134000D03*
X65278000Y-48006000D03*
X111760000Y-117348000D03*
X110236000Y-118872000D03*
X92456000Y-84836000D03*
X116840000Y-52070000D03*
X147066000Y-82296000D03*
X147574000Y-85598000D03*
X151130000Y-89154000D03*
X93980000Y-52070000D03*
X98806000Y-56896000D03*
X113030000Y-65278000D03*
X128524000Y-80772000D03*
X141986000Y-90678000D03*
X145542000Y-96774000D03*
X150368000Y-101600000D03*
X154686000Y-114046000D03*
X121158000Y-46990000D03*
X123444000Y-49276000D03*
X138430000Y-49784000D03*
X139954000Y-48260000D03*
X126746000Y-50800000D03*
X122936000Y-46990000D03*
X147574000Y-106426000D03*
X151384000Y-78486000D03*
X154686000Y-98806000D03*
X150114000Y-91186000D03*
X142748000Y-86360000D03*
X100584000Y-45720000D03*
X70104000Y-73152000D03*
X72136000Y-71120000D03*
X62484000Y-73152000D03*
X92202000Y-62738000D03*
X93218000Y-103886000D03*
X106172000Y-107696000D03*
X78994000Y-96774000D03*
X61214000Y-89662000D03*
X65024000Y-85852000D03*
X74930000Y-74168000D03*
X86614000Y-82804000D03*
X95504000Y-91694000D03*
X102870000Y-95504000D03*
X112268000Y-104902000D03*
X128270000Y-111506000D03*
D23*
X157480000Y-93980000D02*
X149860000Y-86360000D01*
X149860000Y-86360000D02*
X149860000Y-81280000D01*
X131064000Y-100076000D02*
X138430000Y-107442000D01*
X138430000Y-107442000D02*
X138430000Y-123190000D01*
X138430000Y-123190000D02*
X139700000Y-124460000D01*
X72136000Y-74168000D02*
X71882000Y-74422000D01*
X71882000Y-74422000D02*
X71882000Y-74930000D01*
X71882000Y-74930000D02*
X71628000Y-75184000D01*
X71628000Y-75184000D02*
X71628000Y-76708000D01*
X134366000Y-45720000D02*
X132080000Y-48006000D01*
X63500000Y-55880000D02*
X55880000Y-63500000D01*
X55880000Y-63500000D02*
X55880000Y-68580000D01*
X84328000Y-125476000D02*
X85344000Y-126492000D01*
X85344000Y-126492000D02*
X85344000Y-128524000D01*
X105410000Y-77470000D02*
X101600000Y-81280000D01*
X101600000Y-81280000D02*
X101600000Y-85852000D01*
X101600000Y-85852000D02*
X100330000Y-87122000D01*
X100330000Y-87122000D02*
X100330000Y-92710000D01*
X100330000Y-92710000D02*
X100410000Y-92710000D01*
X100410000Y-92710000D02*
X100330000Y-92710000D01*
X100330000Y-92710000D02*
X96012000Y-97028000D01*
X96012000Y-97028000D02*
X96012000Y-102616000D01*
X55880000Y-68580000D02*
X55118000Y-69342000D01*
X55118000Y-69342000D02*
X55118000Y-77978000D01*
X55118000Y-77978000D02*
X56388000Y-79248000D01*
X56388000Y-79248000D02*
X56388000Y-91948000D01*
X129032000Y-102108000D02*
X131064000Y-100076000D01*
X102870000Y-64690000D02*
X102870000Y-64770000D01*
X102870000Y-64770000D02*
X105410000Y-67310000D01*
X105410000Y-67310000D02*
X105410000Y-77470000D01*
X104140000Y-49530000D02*
X104140000Y-60198000D01*
X104140000Y-60198000D02*
X103886000Y-60452000D01*
X103886000Y-60452000D02*
X103886000Y-60706000D01*
X103886000Y-60706000D02*
X102870000Y-61722000D01*
X102870000Y-61722000D02*
X102870000Y-64690000D01*
X63500000Y-55880000D02*
X60960000Y-53340000D01*
X60960000Y-53340000D02*
X60960000Y-48260000D01*
X84328000Y-108712000D02*
X85598000Y-109982000D01*
X85598000Y-109982000D02*
X85598000Y-119126000D01*
X85598000Y-119126000D02*
X84328000Y-120396000D01*
X84328000Y-120396000D02*
X84328000Y-125476000D01*
X139700000Y-124460000D02*
X139700000Y-135890000D01*
X139700000Y-135890000D02*
X138430000Y-137160000D01*
X84328000Y-101092000D02*
X84328000Y-108712000D01*
X102616000Y-85852000D02*
X104140000Y-87376000D01*
X104140000Y-87376000D02*
X104140000Y-93218000D01*
X104140000Y-93218000D02*
X104394000Y-93472000D01*
X104394000Y-93472000D02*
X104394000Y-93726000D01*
X104394000Y-93726000D02*
X113792000Y-103124000D01*
X113792000Y-103124000D02*
X113792000Y-104140000D01*
X113792000Y-104140000D02*
X114554000Y-104902000D01*
X114554000Y-104902000D02*
X114554000Y-106426000D01*
X114554000Y-106426000D02*
X115824000Y-107696000D01*
X100410000Y-77470000D02*
X100330000Y-77470000D01*
X100330000Y-77470000D02*
X100330000Y-85090000D01*
X100330000Y-85090000D02*
X100410000Y-85090000D01*
X105410000Y-92710000D02*
X114554000Y-101854000D01*
X114554000Y-101854000D02*
X114554000Y-103886000D01*
X114554000Y-103886000D02*
X115824000Y-105156000D01*
X105410000Y-85090000D02*
X105410000Y-92710000D01*
X147066000Y-113030000D02*
X150114000Y-116078000D01*
X144780000Y-86360000D02*
X133604000Y-97536000D01*
X133604000Y-97536000D02*
X133604000Y-100076000D01*
X103632000Y-102616000D02*
X101092000Y-100076000D01*
X151130000Y-81280000D02*
X153670000Y-78740000D01*
X153670000Y-78740000D02*
X153670000Y-74930000D01*
X153670000Y-74930000D02*
X154940000Y-73660000D01*
X115824000Y-100076000D02*
X111760000Y-96012000D01*
X111760000Y-96012000D02*
X111760000Y-64008000D01*
X111760000Y-64008000D02*
X110490000Y-62738000D01*
X110490000Y-62738000D02*
X110490000Y-59690000D01*
X103632000Y-102616000D02*
X109220000Y-108204000D01*
X109220000Y-108204000D02*
X109220000Y-135890000D01*
X109220000Y-135890000D02*
X110490000Y-137160000D01*
X61468000Y-91948000D02*
X56388000Y-97028000D01*
X56388000Y-97028000D02*
X56388000Y-101092000D01*
X61468000Y-91948000D02*
X64008000Y-89408000D01*
X64008000Y-89408000D02*
X64008000Y-76708000D01*
X106172000Y-100076000D02*
X103632000Y-102616000D01*
X56388000Y-101092000D02*
X57658000Y-102362000D01*
X57658000Y-102362000D02*
X57658000Y-109982000D01*
X57658000Y-109982000D02*
X56388000Y-111252000D01*
X56388000Y-111252000D02*
X56388000Y-117856000D01*
X69088000Y-76708000D02*
X71120000Y-74676000D01*
X71120000Y-74676000D02*
X71120000Y-68580000D01*
X76708000Y-117856000D02*
X77978000Y-119126000D01*
X77978000Y-119126000D02*
X77978000Y-126746000D01*
X77978000Y-126746000D02*
X80010000Y-128778000D01*
X80010000Y-128778000D02*
X80010000Y-134620000D01*
X74168000Y-117856000D02*
X75438000Y-119126000D01*
X75438000Y-119126000D02*
X75438000Y-126746000D01*
X75438000Y-126746000D02*
X78740000Y-130048000D01*
X78740000Y-130048000D02*
X78740000Y-135890000D01*
X78740000Y-135890000D02*
X80010000Y-137160000D01*
X81788000Y-117856000D02*
X83058000Y-119126000D01*
X83058000Y-119126000D02*
X83058000Y-126746000D01*
X83058000Y-126746000D02*
X82550000Y-127254000D01*
X82550000Y-127254000D02*
X82550000Y-134620000D01*
X79248000Y-117856000D02*
X80518000Y-119126000D01*
X80518000Y-119126000D02*
X80518000Y-126746000D01*
X80518000Y-126746000D02*
X81280000Y-127508000D01*
X81280000Y-127508000D02*
X81280000Y-135890000D01*
X81280000Y-135890000D02*
X82550000Y-137160000D01*
X85090000Y-134620000D02*
X84328000Y-133858000D01*
X84328000Y-133858000D02*
X84328000Y-128016000D01*
X85090000Y-137160000D02*
X86360000Y-135890000D01*
X86360000Y-135890000D02*
X86360000Y-133350000D01*
X86360000Y-133350000D02*
X86868000Y-132842000D01*
X86868000Y-132842000D02*
X86868000Y-120396000D01*
X75692000Y-128524000D02*
X75692000Y-135128000D01*
X87884000Y-124460000D02*
X88900000Y-125476000D01*
X88900000Y-125476000D02*
X88900000Y-135890000D01*
X88900000Y-135890000D02*
X87630000Y-137160000D01*
X87884000Y-123190000D02*
X90170000Y-125476000D01*
X90170000Y-125476000D02*
X90170000Y-134620000D01*
X74168000Y-125476000D02*
X74676000Y-125984000D01*
X74676000Y-125984000D02*
X74676000Y-127000000D01*
X74676000Y-127000000D02*
X74930000Y-127254000D01*
X74930000Y-127254000D02*
X74930000Y-135636000D01*
X74930000Y-135636000D02*
X76200000Y-136906000D01*
X76200000Y-136906000D02*
X76200000Y-138430000D01*
X76200000Y-138430000D02*
X78486000Y-138430000D01*
X78486000Y-138430000D02*
X79756000Y-139700000D01*
X87630000Y-139700000D02*
X90170000Y-137160000D01*
X90678000Y-124460000D02*
X92710000Y-126492000D01*
X92710000Y-126492000D02*
X92710000Y-134620000D01*
X69088000Y-125476000D02*
X74168000Y-130556000D01*
X74168000Y-130556000D02*
X74168000Y-135890000D01*
X74168000Y-135890000D02*
X75184000Y-136906000D01*
X75184000Y-136906000D02*
X75184000Y-138938000D01*
X90170000Y-139700000D02*
X92710000Y-137160000D01*
X64008000Y-125476000D02*
X73406000Y-134874000D01*
X73406000Y-134874000D02*
X73406000Y-136144000D01*
X73406000Y-136144000D02*
X74422000Y-137160000D01*
X74422000Y-137160000D02*
X74422000Y-139446000D01*
X74422000Y-139446000D02*
X75184000Y-140208000D01*
X92710000Y-139700000D02*
X95250000Y-137160000D01*
X90678000Y-123190000D02*
X94234000Y-126746000D01*
X94234000Y-126746000D02*
X94234000Y-127254000D01*
X94234000Y-127254000D02*
X97790000Y-130810000D01*
X97790000Y-130810000D02*
X97790000Y-134620000D01*
X86868000Y-100076000D02*
X93472000Y-106680000D01*
X93472000Y-106680000D02*
X93472000Y-108204000D01*
X103632000Y-110236000D02*
X100330000Y-113538000D01*
X100330000Y-113538000D02*
X100330000Y-134620000D01*
X103632000Y-107696000D02*
X99060000Y-112268000D01*
X99060000Y-112268000D02*
X99060000Y-135890000D01*
X99060000Y-135890000D02*
X100330000Y-137160000D01*
X98044000Y-119126000D02*
X97282000Y-118364000D01*
X97282000Y-118364000D02*
X97282000Y-114046000D01*
X97282000Y-114046000D02*
X94742000Y-114046000D01*
X94742000Y-114046000D02*
X94234000Y-113538000D01*
X94234000Y-113538000D02*
X94234000Y-106426000D01*
X94234000Y-106426000D02*
X87630000Y-99822000D01*
X87630000Y-99822000D02*
X87630000Y-99568000D01*
X87630000Y-99568000D02*
X87376000Y-99314000D01*
X87376000Y-99314000D02*
X87376000Y-95504000D01*
X82042000Y-94488000D02*
X80772000Y-93218000D01*
X80772000Y-93218000D02*
X80518000Y-93218000D01*
X80518000Y-93218000D02*
X80518000Y-90678000D01*
X80518000Y-90678000D02*
X79756000Y-89916000D01*
X73914000Y-89916000D02*
X73152000Y-90678000D01*
X73152000Y-90678000D02*
X72898000Y-90678000D01*
X72898000Y-90678000D02*
X72898000Y-93218000D01*
X72898000Y-93218000D02*
X69088000Y-97028000D01*
X69088000Y-97028000D02*
X69088000Y-101092000D01*
X102870000Y-134620000D02*
X102362000Y-134112000D01*
X102362000Y-134112000D02*
X102362000Y-121666000D01*
X102362000Y-121666000D02*
X103632000Y-120396000D01*
X103632000Y-117856000D02*
X104902000Y-119126000D01*
X104902000Y-119126000D02*
X104902000Y-126746000D01*
X104902000Y-126746000D02*
X103632000Y-128016000D01*
X85852000Y-129540000D02*
X86106000Y-129286000D01*
X86106000Y-129286000D02*
X86106000Y-119888000D01*
X86106000Y-119888000D02*
X86614000Y-119380000D01*
X86614000Y-119380000D02*
X86614000Y-115316000D01*
X76962000Y-111252000D02*
X75692000Y-109982000D01*
X75692000Y-109982000D02*
X75438000Y-109982000D01*
X75438000Y-109982000D02*
X75438000Y-107442000D01*
X75438000Y-107442000D02*
X75184000Y-107188000D01*
X75184000Y-107188000D02*
X75184000Y-106680000D01*
X70612000Y-104394000D02*
X70866000Y-104140000D01*
X70866000Y-104140000D02*
X70866000Y-103378000D01*
X70866000Y-103378000D02*
X71628000Y-102616000D01*
X71628000Y-102616000D02*
X71628000Y-101092000D01*
X103632000Y-117856000D02*
X101600000Y-119888000D01*
X101600000Y-119888000D02*
X101600000Y-135890000D01*
X101600000Y-135890000D02*
X102870000Y-137160000D01*
X96012000Y-117856000D02*
X93472000Y-115316000D01*
X79502000Y-111252000D02*
X78232000Y-109982000D01*
X78232000Y-109982000D02*
X77978000Y-109982000D01*
X77978000Y-109982000D02*
X77978000Y-107442000D01*
X77978000Y-107442000D02*
X77216000Y-106680000D01*
X66294000Y-103378000D02*
X64008000Y-101092000D01*
X96266000Y-128016000D02*
X94996000Y-126746000D01*
X94996000Y-126746000D02*
X94742000Y-126746000D01*
X94742000Y-126746000D02*
X94742000Y-119126000D01*
X94742000Y-119126000D02*
X96012000Y-117856000D01*
X93472000Y-117856000D02*
X91186000Y-115570000D01*
X74422000Y-111252000D02*
X73152000Y-109982000D01*
X73152000Y-109982000D02*
X72898000Y-109982000D01*
X72898000Y-109982000D02*
X72898000Y-107442000D01*
X72898000Y-107442000D02*
X72644000Y-107188000D01*
X72644000Y-107188000D02*
X72644000Y-106680000D01*
X68072000Y-104394000D02*
X67056000Y-103378000D01*
X67056000Y-103378000D02*
X67056000Y-102870000D01*
X67056000Y-102870000D02*
X66548000Y-102362000D01*
X66548000Y-102362000D02*
X66548000Y-101092000D01*
X105410000Y-137160000D02*
X104140000Y-135890000D01*
X104140000Y-135890000D02*
X104140000Y-133350000D01*
X104140000Y-133350000D02*
X103378000Y-132588000D01*
X103378000Y-132588000D02*
X103378000Y-131064000D01*
X98044000Y-125730000D02*
X97282000Y-124968000D01*
X97282000Y-124968000D02*
X97282000Y-121666000D01*
X97282000Y-121666000D02*
X96012000Y-120396000D01*
X106172000Y-110236000D02*
X108204000Y-112268000D01*
X108204000Y-112268000D02*
X108204000Y-118110000D01*
X108204000Y-118110000D02*
X107950000Y-118364000D01*
X107950000Y-118364000D02*
X107950000Y-134620000D01*
X96012000Y-110236000D02*
X98044000Y-112268000D01*
X98044000Y-112268000D02*
X98044000Y-117602000D01*
X106172000Y-120396000D02*
X106680000Y-120904000D01*
X106680000Y-120904000D02*
X106680000Y-135890000D01*
X106680000Y-135890000D02*
X107950000Y-137160000D01*
X61468000Y-101092000D02*
X67818000Y-107442000D01*
X67818000Y-107442000D02*
X67818000Y-109982000D01*
X67818000Y-109982000D02*
X69088000Y-111252000D01*
X115570000Y-134620000D02*
X114300000Y-135890000D01*
X114300000Y-135890000D02*
X114300000Y-138430000D01*
X114300000Y-138430000D02*
X113030000Y-139700000D01*
X74676000Y-141986000D02*
X62738000Y-130048000D01*
X62738000Y-130048000D02*
X62738000Y-124206000D01*
X62738000Y-124206000D02*
X69088000Y-117856000D01*
X110236000Y-140970000D02*
X108204000Y-143002000D01*
X61976000Y-130556000D02*
X60198000Y-128778000D01*
X60198000Y-128778000D02*
X60198000Y-124206000D01*
X60198000Y-124206000D02*
X60960000Y-123444000D01*
X66802000Y-122682000D02*
X71628000Y-117856000D01*
X59436000Y-129286000D02*
X57658000Y-127508000D01*
X57658000Y-127508000D02*
X57658000Y-124206000D01*
X57658000Y-124206000D02*
X61214000Y-120650000D01*
X64516000Y-119888000D02*
X66548000Y-117856000D01*
X115824000Y-79756000D02*
X124460000Y-88392000D01*
X124460000Y-88392000D02*
X124460000Y-135890000D01*
X124460000Y-135890000D02*
X125730000Y-137160000D01*
X63500000Y-68580000D02*
X68580000Y-63500000D01*
X68580000Y-63500000D02*
X68580000Y-45720000D01*
X142494000Y-114046000D02*
X143256000Y-113284000D01*
X143256000Y-113284000D02*
X143256000Y-95758000D01*
X143256000Y-95758000D02*
X140462000Y-92964000D01*
X140462000Y-92964000D02*
X140462000Y-92710000D01*
X133604000Y-85852000D02*
X132334000Y-84582000D01*
X132334000Y-84582000D02*
X132334000Y-83566000D01*
X132334000Y-83566000D02*
X129794000Y-83566000D01*
X129794000Y-83566000D02*
X120650000Y-74422000D01*
X83566000Y-58166000D02*
X71120000Y-45720000D01*
X90170000Y-54610000D02*
X91440000Y-55880000D01*
X91440000Y-55880000D02*
X91440000Y-63246000D01*
X91440000Y-63246000D02*
X96520000Y-68326000D01*
X96520000Y-68326000D02*
X96520000Y-84836000D01*
X94488000Y-85344000D02*
X94742000Y-85598000D01*
X94742000Y-85598000D02*
X94742000Y-86106000D01*
X94742000Y-86106000D02*
X98552000Y-89916000D01*
X98552000Y-89916000D02*
X98552000Y-90170000D01*
X98552000Y-90170000D02*
X98806000Y-90424000D01*
X98806000Y-90424000D02*
X98806000Y-92456000D01*
X102108000Y-92456000D02*
X102108000Y-96012000D01*
X102108000Y-96012000D02*
X104648000Y-98552000D01*
X104648000Y-98552000D02*
X104648000Y-99822000D01*
X106680000Y-101600000D02*
X107696000Y-102616000D01*
X107696000Y-102616000D02*
X107696000Y-105918000D01*
X107696000Y-105918000D02*
X107950000Y-105918000D01*
X107950000Y-105918000D02*
X107950000Y-106172000D01*
X107950000Y-106172000D02*
X108204000Y-106172000D01*
X108204000Y-106172000D02*
X114554000Y-112522000D01*
X114554000Y-112522000D02*
X114554000Y-114046000D01*
X114554000Y-114046000D02*
X117094000Y-114046000D01*
X117094000Y-114046000D02*
X122174000Y-119126000D01*
X122174000Y-119126000D02*
X122174000Y-119634000D01*
X122174000Y-119634000D02*
X122936000Y-120396000D01*
X127000000Y-122936000D02*
X131064000Y-122936000D01*
X139700000Y-109220000D02*
X140970000Y-107950000D01*
X140970000Y-107950000D02*
X140970000Y-105410000D01*
X140970000Y-105410000D02*
X138430000Y-102870000D01*
X138430000Y-102870000D02*
X138430000Y-94234000D01*
X121920000Y-88392000D02*
X115824000Y-82296000D01*
X136906000Y-108966000D02*
X132334000Y-104394000D01*
X132334000Y-104394000D02*
X132334000Y-103886000D01*
X132334000Y-103886000D02*
X129540000Y-103886000D01*
X129540000Y-103886000D02*
X126238000Y-100584000D01*
X126238000Y-100584000D02*
X126238000Y-98552000D01*
X126238000Y-98552000D02*
X125476000Y-97790000D01*
X125476000Y-97790000D02*
X125476000Y-95250000D01*
X123444000Y-93218000D02*
X117094000Y-86868000D01*
X117094000Y-86868000D02*
X117094000Y-86106000D01*
X117094000Y-86106000D02*
X115824000Y-84836000D01*
X115824000Y-94996000D02*
X123444000Y-102616000D01*
X123444000Y-102616000D02*
X123444000Y-103124000D01*
X126746000Y-95250000D02*
X129794000Y-98298000D01*
X129794000Y-98298000D02*
X129794000Y-98806000D01*
X129794000Y-98806000D02*
X132334000Y-98806000D01*
X132334000Y-98806000D02*
X132842000Y-99314000D01*
X132842000Y-99314000D02*
X132842000Y-100584000D01*
X132842000Y-100584000D02*
X133096000Y-100838000D01*
X133096000Y-100838000D02*
X133350000Y-100838000D01*
X133350000Y-100838000D02*
X133858000Y-101346000D01*
X142494000Y-106934000D02*
X141732000Y-107696000D01*
X141732000Y-107696000D02*
X141732000Y-108204000D01*
X141732000Y-108204000D02*
X140970000Y-108966000D01*
X140970000Y-108966000D02*
X140970000Y-115570000D01*
X140970000Y-115570000D02*
X139700000Y-116840000D01*
X136906000Y-116586000D02*
X133604000Y-113284000D01*
X133604000Y-113284000D02*
X133604000Y-107950000D01*
X129032000Y-105664000D02*
X125476000Y-102108000D01*
X125476000Y-102108000D02*
X125476000Y-99060000D01*
X123190000Y-97282000D02*
X115824000Y-89916000D01*
X115824000Y-77216000D02*
X123190000Y-84582000D01*
X139446000Y-93218000D02*
X142494000Y-96266000D01*
X115824000Y-97536000D02*
X113284000Y-94996000D01*
X110744000Y-92456000D02*
X107950000Y-89662000D01*
X99314000Y-89662000D02*
X95504000Y-85852000D01*
X95504000Y-85852000D02*
X95504000Y-81534000D01*
X95504000Y-81534000D02*
X90678000Y-76708000D01*
X90678000Y-76708000D02*
X90678000Y-75438000D01*
X90678000Y-75438000D02*
X81788000Y-66548000D01*
X77978000Y-63754000D02*
X71120000Y-56896000D01*
X71120000Y-56896000D02*
X71120000Y-55880000D01*
X122936000Y-119126000D02*
X123952000Y-118110000D01*
X123952000Y-118110000D02*
X123952000Y-117094000D01*
X123952000Y-117094000D02*
X123444000Y-116586000D01*
X123444000Y-116586000D02*
X123444000Y-114300000D01*
X125476000Y-112268000D02*
X129794000Y-107950000D01*
X129794000Y-107950000D02*
X129794000Y-106426000D01*
X129794000Y-106426000D02*
X131064000Y-105156000D01*
X58928000Y-111252000D02*
X58928000Y-117856000D01*
X115824000Y-122936000D02*
X112522000Y-119634000D01*
X115824000Y-125476000D02*
X110998000Y-120650000D01*
X107442000Y-117602000D02*
X104902000Y-115062000D01*
X104902000Y-115062000D02*
X104902000Y-114046000D01*
X104902000Y-114046000D02*
X103632000Y-112776000D01*
X108458000Y-105410000D02*
X114554000Y-111506000D01*
X114554000Y-111506000D02*
X117094000Y-111506000D01*
X117094000Y-111506000D02*
X123190000Y-117602000D01*
X89408000Y-76708000D02*
X87122000Y-74422000D01*
X87122000Y-74422000D02*
X87122000Y-74168000D01*
X79502000Y-74168000D02*
X78232000Y-75438000D01*
X78232000Y-75438000D02*
X77978000Y-75438000D01*
X77978000Y-75438000D02*
X77978000Y-77978000D01*
X77978000Y-77978000D02*
X77216000Y-78740000D01*
X74422000Y-81534000D02*
X65278000Y-90678000D01*
X65278000Y-90678000D02*
X65278000Y-93218000D01*
X65278000Y-93218000D02*
X64008000Y-94488000D01*
X94742000Y-82042000D02*
X89408000Y-76708000D01*
X86614000Y-96520000D02*
X83312000Y-99822000D01*
X83312000Y-99822000D02*
X83058000Y-99822000D01*
X83058000Y-99822000D02*
X83058000Y-109982000D01*
X83058000Y-109982000D02*
X82042000Y-109982000D01*
X82042000Y-109982000D02*
X80010000Y-112014000D01*
X80010000Y-112014000D02*
X78994000Y-112014000D01*
X78994000Y-112014000D02*
X76708000Y-109728000D01*
X76708000Y-109728000D02*
X76708000Y-108712000D01*
X86868000Y-76708000D02*
X86360000Y-76200000D01*
X86360000Y-76200000D02*
X86360000Y-75184000D01*
X86360000Y-75184000D02*
X85852000Y-74676000D01*
X85852000Y-74676000D02*
X85852000Y-74168000D01*
X82042000Y-74168000D02*
X80772000Y-75438000D01*
X80772000Y-75438000D02*
X80518000Y-75438000D01*
X80518000Y-75438000D02*
X80518000Y-77978000D01*
X80518000Y-77978000D02*
X78486000Y-80010000D01*
X74422000Y-84074000D02*
X67818000Y-90678000D01*
X67818000Y-90678000D02*
X67818000Y-93218000D01*
X67818000Y-93218000D02*
X67056000Y-93218000D01*
X67056000Y-93218000D02*
X60452000Y-99822000D01*
X60452000Y-99822000D02*
X60198000Y-99822000D01*
X60198000Y-99822000D02*
X60198000Y-102362000D01*
X60198000Y-102362000D02*
X64008000Y-106172000D01*
X64008000Y-106172000D02*
X64008000Y-108712000D01*
X86868000Y-76708000D02*
X89662000Y-79502000D01*
X89662000Y-79502000D02*
X89662000Y-79756000D01*
X124968000Y-86360000D02*
X131064000Y-92456000D01*
X76708000Y-76708000D02*
X75438000Y-77978000D01*
X75438000Y-77978000D02*
X75438000Y-102362000D01*
X75438000Y-102362000D02*
X74168000Y-103632000D01*
X74168000Y-103632000D02*
X74168000Y-108712000D01*
X68834000Y-94488000D02*
X70104000Y-93218000D01*
X70104000Y-93218000D02*
X70358000Y-93218000D01*
X70358000Y-93218000D02*
X70358000Y-90678000D01*
X70358000Y-90678000D02*
X70866000Y-90678000D01*
X70866000Y-90678000D02*
X71628000Y-89916000D01*
X76454000Y-85090000D02*
X84328000Y-77216000D01*
X84328000Y-77216000D02*
X84328000Y-76708000D01*
X86868000Y-91948000D02*
X81534000Y-97282000D01*
X81534000Y-97282000D02*
X81534000Y-98552000D01*
X74422000Y-98552000D02*
X73152000Y-99822000D01*
X73152000Y-99822000D02*
X72898000Y-99822000D01*
X72898000Y-99822000D02*
X72898000Y-102362000D01*
X72898000Y-102362000D02*
X71628000Y-103632000D01*
X71628000Y-103632000D02*
X71628000Y-108712000D01*
X81788000Y-76708000D02*
X81280000Y-77216000D01*
X81280000Y-77216000D02*
X81280000Y-78232000D01*
X81280000Y-78232000D02*
X79248000Y-80264000D01*
X79248000Y-80264000D02*
X79248000Y-80518000D01*
X79248000Y-80518000D02*
X76454000Y-83312000D01*
X76454000Y-83312000D02*
X76454000Y-83566000D01*
X55372000Y-98044000D02*
X55118000Y-98298000D01*
X55118000Y-98298000D02*
X55118000Y-102362000D01*
X55118000Y-102362000D02*
X56642000Y-103886000D01*
X56642000Y-103886000D02*
X56642000Y-106426000D01*
X89408000Y-91948000D02*
X82804000Y-98552000D01*
X71882000Y-98552000D02*
X70612000Y-99822000D01*
X70612000Y-99822000D02*
X70358000Y-99822000D01*
X70358000Y-99822000D02*
X70358000Y-102362000D01*
X70358000Y-102362000D02*
X69088000Y-103632000D01*
X69088000Y-103632000D02*
X69088000Y-108712000D01*
X89408000Y-91948000D02*
X91948000Y-89408000D01*
X128778000Y-106934000D02*
X127254000Y-106934000D01*
X127254000Y-106934000D02*
X125476000Y-108712000D01*
X123444000Y-106680000D02*
X117856000Y-101092000D01*
X117856000Y-101092000D02*
X117856000Y-99060000D01*
X111760000Y-97536000D02*
X106680000Y-92456000D01*
X106680000Y-92456000D02*
X106680000Y-84328000D01*
X106680000Y-84328000D02*
X104394000Y-82042000D01*
X104394000Y-82042000D02*
X104394000Y-80010000D01*
X95504000Y-79756000D02*
X91440000Y-75692000D01*
X91440000Y-75692000D02*
X91440000Y-75184000D01*
X91440000Y-75184000D02*
X83058000Y-66802000D01*
X83058000Y-66802000D02*
X83058000Y-61722000D01*
X75946000Y-58166000D02*
X73914000Y-56134000D01*
X65278000Y-48006000D02*
X60960000Y-43688000D01*
X60960000Y-43688000D02*
X60960000Y-43760000D01*
X111760000Y-117348000D02*
X110236000Y-118872000D01*
X78740000Y-68580000D02*
X85598000Y-75438000D01*
X85598000Y-75438000D02*
X85598000Y-77978000D01*
X85598000Y-77978000D02*
X92456000Y-84836000D01*
X104220000Y-44450000D02*
X104140000Y-44450000D01*
X104140000Y-44450000D02*
X109220000Y-49530000D01*
X109220000Y-49530000D02*
X109140000Y-49530000D01*
X109220000Y-44450000D02*
X116840000Y-52070000D01*
X147066000Y-82296000D02*
X147574000Y-82804000D01*
X147574000Y-82804000D02*
X147574000Y-85598000D01*
X151130000Y-89154000D02*
X156210000Y-94234000D01*
X156210000Y-94234000D02*
X156210000Y-118110000D01*
X156210000Y-118110000D02*
X157480000Y-119380000D01*
X157480000Y-119380000D02*
X157480000Y-124460000D01*
X93980000Y-52070000D02*
X98806000Y-56896000D01*
X113030000Y-65278000D02*
X128524000Y-80772000D01*
X141986000Y-90678000D02*
X143510000Y-92202000D01*
X143510000Y-92202000D02*
X143510000Y-94488000D01*
X143510000Y-94488000D02*
X143764000Y-94742000D01*
X143764000Y-94742000D02*
X143764000Y-94996000D01*
X143764000Y-94996000D02*
X145542000Y-96774000D01*
X150368000Y-101600000D02*
X154686000Y-105918000D01*
X154686000Y-105918000D02*
X154686000Y-114046000D01*
X121158000Y-46990000D02*
X123444000Y-49276000D01*
X138430000Y-49784000D02*
X139954000Y-48260000D01*
X126746000Y-50800000D02*
X122936000Y-46990000D01*
X147574000Y-106426000D02*
X149352000Y-104648000D01*
X149352000Y-104648000D02*
X149352000Y-97536000D01*
X149352000Y-97536000D02*
X149098000Y-97282000D01*
X149098000Y-97282000D02*
X149098000Y-80772000D01*
X149098000Y-80772000D02*
X151384000Y-78486000D01*
X147320000Y-76200000D02*
X121920000Y-50800000D01*
X121920000Y-50800000D02*
X121920000Y-49530000D01*
X121920000Y-49530000D02*
X121840000Y-49530000D01*
X147320000Y-76200000D02*
X146050000Y-77470000D01*
X146050000Y-77470000D02*
X146050000Y-86868000D01*
X146050000Y-86868000D02*
X145796000Y-87122000D01*
X145796000Y-87122000D02*
X145796000Y-87376000D01*
X145796000Y-87376000D02*
X144780000Y-88392000D01*
X144780000Y-88392000D02*
X144780000Y-93980000D01*
X154686000Y-98806000D02*
X150114000Y-94234000D01*
X150114000Y-94234000D02*
X150114000Y-91186000D01*
X142748000Y-86360000D02*
X105156000Y-48768000D01*
X105156000Y-48768000D02*
X105156000Y-48514000D01*
X105156000Y-48514000D02*
X104902000Y-48514000D01*
X104902000Y-48514000D02*
X104648000Y-48260000D01*
X104648000Y-48260000D02*
X103124000Y-48260000D01*
X103124000Y-48260000D02*
X100584000Y-45720000D01*
X66548000Y-76708000D02*
X70104000Y-73152000D01*
X72136000Y-71120000D02*
X96520000Y-46736000D01*
X96520000Y-46736000D02*
X96520000Y-44450000D01*
X96520000Y-44450000D02*
X96440000Y-44450000D01*
X58928000Y-76708000D02*
X62484000Y-73152000D01*
X92202000Y-62738000D02*
X95250000Y-59690000D01*
X144780000Y-101600000D02*
X148590000Y-97790000D01*
X148590000Y-97790000D02*
X148590000Y-74930000D01*
X148590000Y-74930000D02*
X147320000Y-73660000D01*
X144780000Y-116840000D02*
X146050000Y-115570000D01*
X146050000Y-115570000D02*
X146050000Y-108712000D01*
X146050000Y-108712000D02*
X145796000Y-108458000D01*
X145796000Y-108458000D02*
X145796000Y-108204000D01*
X145796000Y-108204000D02*
X144780000Y-107188000D01*
X144780000Y-107188000D02*
X144780000Y-101600000D01*
X144780000Y-116840000D02*
X144780000Y-124460000D01*
X93218000Y-103886000D02*
X99822000Y-103886000D01*
X99822000Y-103886000D02*
X102362000Y-106426000D01*
X102362000Y-106426000D02*
X104902000Y-106426000D01*
X104902000Y-106426000D02*
X106172000Y-107696000D01*
X76708000Y-91948000D02*
X77978000Y-93218000D01*
X77978000Y-93218000D02*
X77978000Y-102362000D01*
X77978000Y-102362000D02*
X79248000Y-103632000D01*
X79248000Y-103632000D02*
X79248000Y-108712000D01*
X78994000Y-96774000D02*
X80518000Y-98298000D01*
X80518000Y-98298000D02*
X80518000Y-102362000D01*
X80518000Y-102362000D02*
X81788000Y-103632000D01*
X81788000Y-103632000D02*
X81788000Y-108712000D01*
X58928000Y-91948000D02*
X61214000Y-89662000D01*
X65024000Y-85852000D02*
X72898000Y-77978000D01*
X72898000Y-77978000D02*
X72898000Y-75438000D01*
X72898000Y-75438000D02*
X73660000Y-75438000D01*
X73660000Y-75438000D02*
X74930000Y-74168000D01*
X86614000Y-82804000D02*
X95504000Y-91694000D01*
X102870000Y-95504000D02*
X112268000Y-104902000D01*
X128270000Y-111506000D02*
X129794000Y-111506000D01*
X129794000Y-111506000D02*
X131064000Y-110236000D01*
M02*
