G04 #@! TF.FileFunction,Soldermask,Bot*
%FSLAX46Y46*%
G04 Gerber Fmt 4.6, Leading zero omitted, Abs format (unit mm)*
G04 Created by KiCad (PCBNEW 4.0.7) date 03/30/18 14:47:40*
%MOMM*%
%LPD*%
G01*
G04 APERTURE LIST*
%ADD10C,0.100000*%
%ADD11C,2.000000*%
%ADD12R,2.100000X2.100000*%
%ADD13O,2.100000X2.100000*%
%ADD14R,2.200000X2.200000*%
%ADD15C,2.200000*%
%ADD16C,2.100000*%
%ADD17O,2.000000X2.000000*%
%ADD18C,2.400000*%
%ADD19R,2.000000X2.000000*%
%ADD20O,2.600000X4.400000*%
%ADD21O,4.400000X2.600000*%
G04 APERTURE END LIST*
D10*
D11*
X100330000Y-73660000D03*
X100330000Y-68660000D03*
X110490000Y-73660000D03*
X110490000Y-68660000D03*
X80010000Y-82550000D03*
X85010000Y-82550000D03*
D12*
X93980000Y-114300000D03*
D13*
X93980000Y-116840000D03*
X96520000Y-114300000D03*
X96520000Y-116840000D03*
X99060000Y-114300000D03*
X99060000Y-116840000D03*
X101600000Y-114300000D03*
X101600000Y-116840000D03*
X104140000Y-114300000D03*
X104140000Y-116840000D03*
X106680000Y-114300000D03*
X106680000Y-116840000D03*
X109220000Y-114300000D03*
X109220000Y-116840000D03*
X111760000Y-114300000D03*
X111760000Y-116840000D03*
X114300000Y-114300000D03*
X114300000Y-116840000D03*
X116840000Y-114300000D03*
X116840000Y-116840000D03*
X119380000Y-114300000D03*
X119380000Y-116840000D03*
X121920000Y-114300000D03*
X121920000Y-116840000D03*
X124460000Y-114300000D03*
X124460000Y-116840000D03*
X127000000Y-114300000D03*
X127000000Y-116840000D03*
X129540000Y-114300000D03*
X129540000Y-116840000D03*
X132080000Y-114300000D03*
X132080000Y-116840000D03*
X134620000Y-114300000D03*
X134620000Y-116840000D03*
X137160000Y-114300000D03*
X137160000Y-116840000D03*
X139700000Y-114300000D03*
X139700000Y-116840000D03*
X142240000Y-114300000D03*
X142240000Y-116840000D03*
X144780000Y-114300000D03*
X144780000Y-116840000D03*
X147320000Y-114300000D03*
X147320000Y-116840000D03*
X149860000Y-114300000D03*
X149860000Y-116840000D03*
X152400000Y-114300000D03*
X152400000Y-116840000D03*
X154940000Y-114300000D03*
X154940000Y-116840000D03*
D14*
X86360000Y-54610000D03*
D15*
X88900000Y-54610000D03*
D14*
X78740000Y-54610000D03*
D15*
X81280000Y-54610000D03*
D12*
X151130000Y-86360000D03*
D13*
X151130000Y-88900000D03*
X151130000Y-91440000D03*
X151130000Y-93980000D03*
X151130000Y-96520000D03*
X151130000Y-99060000D03*
X151130000Y-101600000D03*
X151130000Y-104140000D03*
D12*
X173990000Y-104140000D03*
D13*
X173990000Y-101600000D03*
X173990000Y-99060000D03*
X173990000Y-96520000D03*
X173990000Y-93980000D03*
X173990000Y-91440000D03*
X173990000Y-88900000D03*
X173990000Y-86360000D03*
D16*
X105410000Y-73660000D03*
X105410000Y-68660000D03*
D11*
X78740000Y-74930000D03*
D17*
X78740000Y-62230000D03*
D11*
X83820000Y-74930000D03*
D17*
X83820000Y-62230000D03*
D11*
X88900000Y-74930000D03*
D17*
X88900000Y-62230000D03*
D18*
X146050000Y-55190000D03*
X146050000Y-59690000D03*
X139550000Y-55190000D03*
X139550000Y-59690000D03*
D19*
X78232000Y-90424000D03*
D17*
X85852000Y-118364000D03*
X78232000Y-92964000D03*
X85852000Y-115824000D03*
X78232000Y-95504000D03*
X85852000Y-113284000D03*
X78232000Y-98044000D03*
X85852000Y-110744000D03*
X78232000Y-100584000D03*
X85852000Y-108204000D03*
X78232000Y-103124000D03*
X85852000Y-105664000D03*
X78232000Y-105664000D03*
X85852000Y-103124000D03*
X78232000Y-108204000D03*
X85852000Y-100584000D03*
X78232000Y-110744000D03*
X85852000Y-98044000D03*
X78232000Y-113284000D03*
X85852000Y-95504000D03*
X78232000Y-115824000D03*
X85852000Y-92964000D03*
X78232000Y-118364000D03*
X85852000Y-90424000D03*
D19*
X102870000Y-81280000D03*
D17*
X110490000Y-104140000D03*
X102870000Y-83820000D03*
X110490000Y-101600000D03*
X102870000Y-86360000D03*
X110490000Y-99060000D03*
X102870000Y-88900000D03*
X110490000Y-96520000D03*
X102870000Y-91440000D03*
X110490000Y-93980000D03*
X102870000Y-93980000D03*
X110490000Y-91440000D03*
X102870000Y-96520000D03*
X110490000Y-88900000D03*
X102870000Y-99060000D03*
X110490000Y-86360000D03*
X102870000Y-101600000D03*
X110490000Y-83820000D03*
X102870000Y-104140000D03*
X110490000Y-81280000D03*
D19*
X138430000Y-81280000D03*
D17*
X146050000Y-104140000D03*
X138430000Y-83820000D03*
X146050000Y-101600000D03*
X138430000Y-86360000D03*
X146050000Y-99060000D03*
X138430000Y-88900000D03*
X146050000Y-96520000D03*
X138430000Y-91440000D03*
X146050000Y-93980000D03*
X138430000Y-93980000D03*
X146050000Y-91440000D03*
X138430000Y-96520000D03*
X146050000Y-88900000D03*
X138430000Y-99060000D03*
X146050000Y-86360000D03*
X138430000Y-101600000D03*
X146050000Y-83820000D03*
X138430000Y-104140000D03*
X146050000Y-81280000D03*
D19*
X116840000Y-55880000D03*
D17*
X132080000Y-104140000D03*
X116840000Y-58420000D03*
X132080000Y-101600000D03*
X116840000Y-60960000D03*
X132080000Y-99060000D03*
X116840000Y-63500000D03*
X132080000Y-96520000D03*
X116840000Y-66040000D03*
X132080000Y-93980000D03*
X116840000Y-68580000D03*
X132080000Y-91440000D03*
X116840000Y-71120000D03*
X132080000Y-88900000D03*
X116840000Y-73660000D03*
X132080000Y-86360000D03*
X116840000Y-76200000D03*
X132080000Y-83820000D03*
X116840000Y-78740000D03*
X132080000Y-81280000D03*
X116840000Y-81280000D03*
X132080000Y-78740000D03*
X116840000Y-83820000D03*
X132080000Y-76200000D03*
X116840000Y-86360000D03*
X132080000Y-73660000D03*
X116840000Y-88900000D03*
X132080000Y-71120000D03*
X116840000Y-91440000D03*
X132080000Y-68580000D03*
X116840000Y-93980000D03*
X132080000Y-66040000D03*
X116840000Y-96520000D03*
X132080000Y-63500000D03*
X116840000Y-99060000D03*
X132080000Y-60960000D03*
X116840000Y-101600000D03*
X132080000Y-58420000D03*
X116840000Y-104140000D03*
X132080000Y-55880000D03*
D11*
X172720000Y-72390000D03*
X167720000Y-72390000D03*
X168910000Y-87630000D03*
D17*
X156210000Y-87630000D03*
D11*
X172720000Y-77470000D03*
X167720000Y-77470000D03*
X154940000Y-77470000D03*
X159940000Y-77470000D03*
X154940000Y-72390000D03*
X159940000Y-72390000D03*
X161290000Y-67310000D03*
X166290000Y-67310000D03*
D20*
X152400000Y-54610000D03*
D21*
X152900000Y-61910000D03*
D20*
X159500000Y-57510000D03*
X162200000Y-58710000D03*
D21*
X157000000Y-50710000D03*
D20*
X166370000Y-54610000D03*
D21*
X166870000Y-61910000D03*
D20*
X173470000Y-57510000D03*
X176170000Y-58710000D03*
D21*
X170970000Y-50710000D03*
D11*
X156210000Y-97790000D03*
D17*
X168910000Y-97790000D03*
D11*
X156210000Y-102870000D03*
D17*
X168910000Y-102870000D03*
D11*
X107950000Y-63500000D03*
D17*
X107950000Y-50800000D03*
D11*
X102870000Y-63500000D03*
D17*
X102870000Y-50800000D03*
D11*
X168910000Y-92710000D03*
D17*
X156210000Y-92710000D03*
D19*
X138430000Y-67310000D03*
D17*
X146050000Y-74930000D03*
X138430000Y-69850000D03*
X146050000Y-72390000D03*
X138430000Y-72390000D03*
X146050000Y-69850000D03*
X138430000Y-74930000D03*
X146050000Y-67310000D03*
M02*
