G04 #@! TF.FileFunction,Copper,L2,Bot,Signal*
%FSLAX46Y46*%
G04 Gerber Fmt 4.6, Leading zero omitted, Abs format (unit mm)*
G04 Created by KiCad (PCBNEW 4.0.7) date 03/30/18 14:47:40*
%MOMM*%
%LPD*%
G01*
G04 APERTURE LIST*
%ADD10C,0.100000*%
%ADD11C,1.600000*%
%ADD12R,1.700000X1.700000*%
%ADD13O,1.700000X1.700000*%
%ADD14R,1.800000X1.800000*%
%ADD15C,1.800000*%
%ADD16C,1.700000*%
%ADD17O,1.600000X1.600000*%
%ADD18C,2.000000*%
%ADD19R,1.600000X1.600000*%
%ADD20O,2.200000X4.000000*%
%ADD21O,4.000000X2.200000*%
%ADD22C,0.600000*%
%ADD23C,0.250000*%
G04 APERTURE END LIST*
D10*
D11*
X100330000Y-73660000D03*
X100330000Y-68660000D03*
X110490000Y-73660000D03*
X110490000Y-68660000D03*
X80010000Y-82550000D03*
X85010000Y-82550000D03*
D12*
X93980000Y-114300000D03*
D13*
X93980000Y-116840000D03*
X96520000Y-114300000D03*
X96520000Y-116840000D03*
X99060000Y-114300000D03*
X99060000Y-116840000D03*
X101600000Y-114300000D03*
X101600000Y-116840000D03*
X104140000Y-114300000D03*
X104140000Y-116840000D03*
X106680000Y-114300000D03*
X106680000Y-116840000D03*
X109220000Y-114300000D03*
X109220000Y-116840000D03*
X111760000Y-114300000D03*
X111760000Y-116840000D03*
X114300000Y-114300000D03*
X114300000Y-116840000D03*
X116840000Y-114300000D03*
X116840000Y-116840000D03*
X119380000Y-114300000D03*
X119380000Y-116840000D03*
X121920000Y-114300000D03*
X121920000Y-116840000D03*
X124460000Y-114300000D03*
X124460000Y-116840000D03*
X127000000Y-114300000D03*
X127000000Y-116840000D03*
X129540000Y-114300000D03*
X129540000Y-116840000D03*
X132080000Y-114300000D03*
X132080000Y-116840000D03*
X134620000Y-114300000D03*
X134620000Y-116840000D03*
X137160000Y-114300000D03*
X137160000Y-116840000D03*
X139700000Y-114300000D03*
X139700000Y-116840000D03*
X142240000Y-114300000D03*
X142240000Y-116840000D03*
X144780000Y-114300000D03*
X144780000Y-116840000D03*
X147320000Y-114300000D03*
X147320000Y-116840000D03*
X149860000Y-114300000D03*
X149860000Y-116840000D03*
X152400000Y-114300000D03*
X152400000Y-116840000D03*
X154940000Y-114300000D03*
X154940000Y-116840000D03*
D14*
X86360000Y-54610000D03*
D15*
X88900000Y-54610000D03*
D14*
X78740000Y-54610000D03*
D15*
X81280000Y-54610000D03*
D12*
X151130000Y-86360000D03*
D13*
X151130000Y-88900000D03*
X151130000Y-91440000D03*
X151130000Y-93980000D03*
X151130000Y-96520000D03*
X151130000Y-99060000D03*
X151130000Y-101600000D03*
X151130000Y-104140000D03*
D12*
X173990000Y-104140000D03*
D13*
X173990000Y-101600000D03*
X173990000Y-99060000D03*
X173990000Y-96520000D03*
X173990000Y-93980000D03*
X173990000Y-91440000D03*
X173990000Y-88900000D03*
X173990000Y-86360000D03*
D16*
X105410000Y-73660000D03*
X105410000Y-68660000D03*
D11*
X78740000Y-74930000D03*
D17*
X78740000Y-62230000D03*
D11*
X83820000Y-74930000D03*
D17*
X83820000Y-62230000D03*
D11*
X88900000Y-74930000D03*
D17*
X88900000Y-62230000D03*
D18*
X146050000Y-55190000D03*
X146050000Y-59690000D03*
X139550000Y-55190000D03*
X139550000Y-59690000D03*
D19*
X78232000Y-90424000D03*
D17*
X85852000Y-118364000D03*
X78232000Y-92964000D03*
X85852000Y-115824000D03*
X78232000Y-95504000D03*
X85852000Y-113284000D03*
X78232000Y-98044000D03*
X85852000Y-110744000D03*
X78232000Y-100584000D03*
X85852000Y-108204000D03*
X78232000Y-103124000D03*
X85852000Y-105664000D03*
X78232000Y-105664000D03*
X85852000Y-103124000D03*
X78232000Y-108204000D03*
X85852000Y-100584000D03*
X78232000Y-110744000D03*
X85852000Y-98044000D03*
X78232000Y-113284000D03*
X85852000Y-95504000D03*
X78232000Y-115824000D03*
X85852000Y-92964000D03*
X78232000Y-118364000D03*
X85852000Y-90424000D03*
D19*
X102870000Y-81280000D03*
D17*
X110490000Y-104140000D03*
X102870000Y-83820000D03*
X110490000Y-101600000D03*
X102870000Y-86360000D03*
X110490000Y-99060000D03*
X102870000Y-88900000D03*
X110490000Y-96520000D03*
X102870000Y-91440000D03*
X110490000Y-93980000D03*
X102870000Y-93980000D03*
X110490000Y-91440000D03*
X102870000Y-96520000D03*
X110490000Y-88900000D03*
X102870000Y-99060000D03*
X110490000Y-86360000D03*
X102870000Y-101600000D03*
X110490000Y-83820000D03*
X102870000Y-104140000D03*
X110490000Y-81280000D03*
D19*
X138430000Y-81280000D03*
D17*
X146050000Y-104140000D03*
X138430000Y-83820000D03*
X146050000Y-101600000D03*
X138430000Y-86360000D03*
X146050000Y-99060000D03*
X138430000Y-88900000D03*
X146050000Y-96520000D03*
X138430000Y-91440000D03*
X146050000Y-93980000D03*
X138430000Y-93980000D03*
X146050000Y-91440000D03*
X138430000Y-96520000D03*
X146050000Y-88900000D03*
X138430000Y-99060000D03*
X146050000Y-86360000D03*
X138430000Y-101600000D03*
X146050000Y-83820000D03*
X138430000Y-104140000D03*
X146050000Y-81280000D03*
D19*
X116840000Y-55880000D03*
D17*
X132080000Y-104140000D03*
X116840000Y-58420000D03*
X132080000Y-101600000D03*
X116840000Y-60960000D03*
X132080000Y-99060000D03*
X116840000Y-63500000D03*
X132080000Y-96520000D03*
X116840000Y-66040000D03*
X132080000Y-93980000D03*
X116840000Y-68580000D03*
X132080000Y-91440000D03*
X116840000Y-71120000D03*
X132080000Y-88900000D03*
X116840000Y-73660000D03*
X132080000Y-86360000D03*
X116840000Y-76200000D03*
X132080000Y-83820000D03*
X116840000Y-78740000D03*
X132080000Y-81280000D03*
X116840000Y-81280000D03*
X132080000Y-78740000D03*
X116840000Y-83820000D03*
X132080000Y-76200000D03*
X116840000Y-86360000D03*
X132080000Y-73660000D03*
X116840000Y-88900000D03*
X132080000Y-71120000D03*
X116840000Y-91440000D03*
X132080000Y-68580000D03*
X116840000Y-93980000D03*
X132080000Y-66040000D03*
X116840000Y-96520000D03*
X132080000Y-63500000D03*
X116840000Y-99060000D03*
X132080000Y-60960000D03*
X116840000Y-101600000D03*
X132080000Y-58420000D03*
X116840000Y-104140000D03*
X132080000Y-55880000D03*
D11*
X172720000Y-72390000D03*
X167720000Y-72390000D03*
X168910000Y-87630000D03*
D17*
X156210000Y-87630000D03*
D11*
X172720000Y-77470000D03*
X167720000Y-77470000D03*
X154940000Y-77470000D03*
X159940000Y-77470000D03*
X154940000Y-72390000D03*
X159940000Y-72390000D03*
X161290000Y-67310000D03*
X166290000Y-67310000D03*
D20*
X152400000Y-54610000D03*
D21*
X152900000Y-61910000D03*
D20*
X159500000Y-57510000D03*
X162200000Y-58710000D03*
D21*
X157000000Y-50710000D03*
D20*
X166370000Y-54610000D03*
D21*
X166870000Y-61910000D03*
D20*
X173470000Y-57510000D03*
X176170000Y-58710000D03*
D21*
X170970000Y-50710000D03*
D11*
X156210000Y-97790000D03*
D17*
X168910000Y-97790000D03*
D11*
X156210000Y-102870000D03*
D17*
X168910000Y-102870000D03*
D11*
X107950000Y-63500000D03*
D17*
X107950000Y-50800000D03*
D11*
X102870000Y-63500000D03*
D17*
X102870000Y-50800000D03*
D11*
X168910000Y-92710000D03*
D17*
X156210000Y-92710000D03*
D19*
X138430000Y-67310000D03*
D17*
X146050000Y-74930000D03*
X138430000Y-69850000D03*
X146050000Y-72390000D03*
X138430000Y-72390000D03*
X146050000Y-69850000D03*
X138430000Y-74930000D03*
X146050000Y-67310000D03*
D22*
X149606000Y-53340000D03*
X88646000Y-116840000D03*
X112776000Y-77470000D03*
X110236000Y-71882000D03*
X107950000Y-78740000D03*
X118872000Y-80772000D03*
X113030000Y-78740000D03*
X91948000Y-117348000D03*
X89662000Y-117348000D03*
X91948000Y-114808000D03*
X85852000Y-120904000D03*
X100076000Y-111760000D03*
X88392000Y-108204000D03*
X83058000Y-106934000D03*
X106680000Y-111760000D03*
X88646000Y-101854000D03*
X83566000Y-102870000D03*
X109220000Y-119380000D03*
X101854000Y-120650000D03*
X99314000Y-119634000D03*
X75692000Y-118364000D03*
X106426000Y-119380000D03*
X101854000Y-123444000D03*
X76962000Y-120904000D03*
X75692000Y-100584000D03*
X78486000Y-124968000D03*
X98806000Y-125222000D03*
X104394000Y-119380000D03*
X76962000Y-122174000D03*
X106680000Y-123444000D03*
X109474000Y-120650000D03*
X108204000Y-106680000D03*
X113284000Y-100330000D03*
X114300000Y-104394000D03*
X114300000Y-101346000D03*
X105156000Y-94234000D03*
X122936000Y-111760000D03*
X138176000Y-106680000D03*
X143256000Y-97028000D03*
X119380000Y-119380000D03*
X84328000Y-120904000D03*
X80772000Y-117348000D03*
X89662000Y-114300000D03*
X124460000Y-111760000D03*
X143764000Y-103886000D03*
X146050000Y-106680000D03*
X106680000Y-86106000D03*
X105156000Y-87630000D03*
X144018000Y-93472000D03*
X142240000Y-99568000D03*
X134620000Y-98806000D03*
X108204000Y-88646000D03*
X114300000Y-92456000D03*
X93726000Y-109220000D03*
X98298000Y-111506000D03*
X103124000Y-106680000D03*
X91440000Y-105410000D03*
X98552000Y-98298000D03*
X105156000Y-97790000D03*
X114300000Y-119380000D03*
X84328000Y-122174000D03*
X144780000Y-111760000D03*
X153924000Y-105156000D03*
X154178000Y-102870000D03*
X159004000Y-98298000D03*
X159766000Y-91948000D03*
X159766000Y-87122000D03*
X156464000Y-68834000D03*
X143256000Y-56642000D03*
X140462000Y-52324000D03*
X81534000Y-60198000D03*
X75438000Y-123190000D03*
X127254000Y-121412000D03*
X134874000Y-100330000D03*
X83566000Y-59436000D03*
X77724000Y-126746000D03*
X132080000Y-119380000D03*
X135890000Y-104394000D03*
X162052000Y-92456000D03*
X159004000Y-84836000D03*
X156464000Y-67310000D03*
X154432000Y-65278000D03*
X149352000Y-51816000D03*
X120396000Y-57404000D03*
X122936000Y-57404000D03*
X156464000Y-61468000D03*
X161036000Y-88392000D03*
X161036000Y-91948000D03*
X160782000Y-97028000D03*
X134874000Y-90170000D03*
X126746000Y-93726000D03*
X124714000Y-93726000D03*
X159004000Y-97028000D03*
X148590000Y-68072000D03*
X148590000Y-65024000D03*
X139446000Y-52832000D03*
X132080000Y-53340000D03*
X133350000Y-49530000D03*
X152400000Y-49784000D03*
X157734000Y-61214000D03*
X157734000Y-64516000D03*
X160020000Y-84328000D03*
X163068000Y-93472000D03*
X156464000Y-105664000D03*
X151638000Y-106934000D03*
X167894000Y-82804000D03*
X164846000Y-64770000D03*
X156210000Y-58166000D03*
X154432000Y-53848000D03*
X152654000Y-51816000D03*
X149606000Y-48768000D03*
X105664000Y-65786000D03*
X122936000Y-84074000D03*
X121158000Y-88646000D03*
X118872000Y-89154000D03*
X119888000Y-106680000D03*
X113030000Y-106680000D03*
X142494000Y-75184000D03*
X140462000Y-64770000D03*
X138430000Y-62738000D03*
X134874000Y-57150000D03*
X114300000Y-68326000D03*
X113030000Y-70104000D03*
X99314000Y-77724000D03*
X140462000Y-83312000D03*
X127508000Y-102870000D03*
X126746000Y-99314000D03*
X124714000Y-98806000D03*
X122682000Y-96774000D03*
X118872000Y-93726000D03*
X140716000Y-69850000D03*
X142240000Y-86106000D03*
X141732000Y-78232000D03*
X130048000Y-79756000D03*
X135890000Y-93726000D03*
X134620000Y-63500000D03*
X143256000Y-77470000D03*
X130048000Y-74168000D03*
X135890000Y-88646000D03*
X127254000Y-73406000D03*
X124714000Y-75946000D03*
X124714000Y-88646000D03*
X127254000Y-89154000D03*
X134620000Y-93980000D03*
X135890000Y-83566000D03*
X124714000Y-71374000D03*
X124714000Y-91186000D03*
X127254000Y-91694000D03*
X135890000Y-98806000D03*
X140462000Y-101092000D03*
X130048000Y-60452000D03*
X125730000Y-86106000D03*
X127254000Y-101346000D03*
X89408000Y-99060000D03*
X137160000Y-55118000D03*
X162560000Y-74930000D03*
X160782000Y-69850000D03*
X163068000Y-67564000D03*
X146050000Y-77470000D03*
X143764000Y-74930000D03*
X142494000Y-70104000D03*
D23*
X149606000Y-53340000D02*
X152146000Y-50800000D01*
X152146000Y-50800000D02*
X156972000Y-50800000D01*
X156972000Y-50800000D02*
X157000000Y-50710000D01*
X161290000Y-67310000D02*
X165100000Y-71120000D01*
X165100000Y-71120000D02*
X168402000Y-71120000D01*
X168402000Y-71120000D02*
X169672000Y-72390000D01*
X169672000Y-72390000D02*
X172720000Y-72390000D01*
X100330000Y-73660000D02*
X104140000Y-69850000D01*
X104140000Y-69850000D02*
X106172000Y-69850000D01*
X106172000Y-69850000D02*
X107442000Y-68580000D01*
X107442000Y-68580000D02*
X110490000Y-68580000D01*
X110490000Y-68580000D02*
X110490000Y-68660000D01*
X88646000Y-116840000D02*
X88392000Y-117094000D01*
X88392000Y-117094000D02*
X84582000Y-117094000D01*
X84582000Y-117094000D02*
X83312000Y-118364000D01*
X83312000Y-118364000D02*
X78232000Y-118364000D01*
X116840000Y-81280000D02*
X119380000Y-78740000D01*
X119380000Y-78740000D02*
X132080000Y-78740000D01*
X151130000Y-104140000D02*
X173990000Y-104140000D01*
X132080000Y-78740000D02*
X135890000Y-74930000D01*
X135890000Y-74930000D02*
X138430000Y-74930000D01*
X102870000Y-81280000D02*
X101600000Y-82550000D01*
X101600000Y-82550000D02*
X85010000Y-82550000D01*
X157000000Y-50710000D02*
X156972000Y-50800000D01*
X156972000Y-50800000D02*
X170942000Y-50800000D01*
X170942000Y-50800000D02*
X170970000Y-50710000D01*
X102870000Y-81280000D02*
X104140000Y-80010000D01*
X104140000Y-80010000D02*
X111760000Y-80010000D01*
X111760000Y-80010000D02*
X113030000Y-81280000D01*
X113030000Y-81280000D02*
X116840000Y-81280000D01*
X138430000Y-104140000D02*
X139700000Y-102870000D01*
X139700000Y-102870000D02*
X147320000Y-102870000D01*
X147320000Y-102870000D02*
X148590000Y-104140000D01*
X148590000Y-104140000D02*
X151130000Y-104140000D01*
X139550000Y-59690000D02*
X146050000Y-59690000D01*
X83820000Y-62230000D02*
X88900000Y-62230000D01*
X112776000Y-77470000D02*
X112776000Y-73914000D01*
X112776000Y-73914000D02*
X110744000Y-71882000D01*
X110744000Y-71882000D02*
X110236000Y-71882000D01*
X105410000Y-68660000D02*
X105410000Y-68580000D01*
X105410000Y-68580000D02*
X100330000Y-68580000D01*
X100330000Y-68580000D02*
X100330000Y-68660000D01*
X110490000Y-73660000D02*
X105410000Y-73660000D01*
X146050000Y-81280000D02*
X149860000Y-85090000D01*
X149860000Y-85090000D02*
X152400000Y-85090000D01*
X152400000Y-85090000D02*
X152400000Y-86360000D01*
X152400000Y-86360000D02*
X167640000Y-101600000D01*
X167640000Y-101600000D02*
X173990000Y-101600000D01*
X107950000Y-78740000D02*
X107442000Y-79248000D01*
X107442000Y-79248000D02*
X103886000Y-79248000D01*
X103886000Y-79248000D02*
X103124000Y-80010000D01*
X103124000Y-80010000D02*
X101600000Y-80010000D01*
X101600000Y-80010000D02*
X100330000Y-81280000D01*
X100330000Y-81280000D02*
X84328000Y-81280000D01*
X84328000Y-81280000D02*
X83058000Y-82550000D01*
X83058000Y-82550000D02*
X80010000Y-82550000D01*
X118872000Y-80772000D02*
X119380000Y-81280000D01*
X119380000Y-81280000D02*
X132080000Y-81280000D01*
X113030000Y-78740000D02*
X116840000Y-78740000D01*
X132080000Y-81280000D02*
X133350000Y-82550000D01*
X133350000Y-82550000D02*
X139700000Y-82550000D01*
X139700000Y-82550000D02*
X140970000Y-81280000D01*
X140970000Y-81280000D02*
X146050000Y-81280000D01*
X96520000Y-114300000D02*
X92964000Y-110744000D01*
X92964000Y-110744000D02*
X85852000Y-110744000D01*
X91948000Y-117348000D02*
X89662000Y-117348000D01*
X99060000Y-114300000D02*
X97790000Y-115570000D01*
X97790000Y-115570000D02*
X92710000Y-115570000D01*
X92710000Y-115570000D02*
X92456000Y-115824000D01*
X92456000Y-115824000D02*
X85852000Y-115824000D01*
X91948000Y-114808000D02*
X90424000Y-113284000D01*
X90424000Y-113284000D02*
X85852000Y-113284000D01*
X78232000Y-115824000D02*
X84582000Y-109474000D01*
X84582000Y-109474000D02*
X87122000Y-109474000D01*
X87122000Y-109474000D02*
X87630000Y-109982000D01*
X87630000Y-109982000D02*
X93218000Y-109982000D01*
X93218000Y-109982000D02*
X96266000Y-113030000D01*
X96266000Y-113030000D02*
X100330000Y-113030000D01*
X100330000Y-113030000D02*
X101600000Y-114300000D01*
X101600000Y-116840000D02*
X100076000Y-118364000D01*
X100076000Y-118364000D02*
X85852000Y-118364000D01*
X104140000Y-114300000D02*
X96774000Y-106934000D01*
X96774000Y-106934000D02*
X84582000Y-106934000D01*
X84582000Y-106934000D02*
X80772000Y-110744000D01*
X80772000Y-110744000D02*
X78232000Y-110744000D01*
X104140000Y-116840000D02*
X100076000Y-120904000D01*
X100076000Y-120904000D02*
X85852000Y-120904000D01*
X106680000Y-114300000D02*
X96774000Y-104394000D01*
X96774000Y-104394000D02*
X84582000Y-104394000D01*
X84582000Y-104394000D02*
X83312000Y-105664000D01*
X83312000Y-105664000D02*
X78232000Y-105664000D01*
X100076000Y-111760000D02*
X96520000Y-108204000D01*
X96520000Y-108204000D02*
X88392000Y-108204000D01*
X83058000Y-106934000D02*
X81788000Y-108204000D01*
X81788000Y-108204000D02*
X78232000Y-108204000D01*
X78232000Y-100584000D02*
X79502000Y-101854000D01*
X79502000Y-101854000D02*
X87122000Y-101854000D01*
X87122000Y-101854000D02*
X88900000Y-103632000D01*
X88900000Y-103632000D02*
X97028000Y-103632000D01*
X97028000Y-103632000D02*
X106426000Y-113030000D01*
X106426000Y-113030000D02*
X107950000Y-113030000D01*
X107950000Y-113030000D02*
X109220000Y-114300000D01*
X106680000Y-111760000D02*
X96774000Y-101854000D01*
X96774000Y-101854000D02*
X88646000Y-101854000D01*
X83566000Y-102870000D02*
X83312000Y-103124000D01*
X83312000Y-103124000D02*
X78232000Y-103124000D01*
X109220000Y-119380000D02*
X107950000Y-120650000D01*
X107950000Y-120650000D02*
X101854000Y-120650000D01*
X99314000Y-119634000D02*
X76962000Y-119634000D01*
X76962000Y-119634000D02*
X75692000Y-118364000D01*
X111760000Y-116840000D02*
X109982000Y-118618000D01*
X109982000Y-118618000D02*
X108712000Y-118618000D01*
X108712000Y-118618000D02*
X107950000Y-119380000D01*
X107950000Y-119380000D02*
X106426000Y-119380000D01*
X101854000Y-123444000D02*
X101600000Y-123190000D01*
X101600000Y-123190000D02*
X84328000Y-123190000D01*
X84328000Y-123190000D02*
X84074000Y-122936000D01*
X84074000Y-122936000D02*
X83820000Y-122936000D01*
X83820000Y-122936000D02*
X81788000Y-120904000D01*
X81788000Y-120904000D02*
X76962000Y-120904000D01*
X75692000Y-100584000D02*
X78232000Y-98044000D01*
X78486000Y-124968000D02*
X78740000Y-125222000D01*
X78740000Y-125222000D02*
X98806000Y-125222000D01*
X104394000Y-119380000D02*
X105664000Y-118110000D01*
X105664000Y-118110000D02*
X107950000Y-118110000D01*
X107950000Y-118110000D02*
X107950000Y-115570000D01*
X107950000Y-115570000D02*
X113030000Y-115570000D01*
X113030000Y-115570000D02*
X114300000Y-114300000D01*
X76962000Y-122174000D02*
X78994000Y-124206000D01*
X78994000Y-124206000D02*
X102362000Y-124206000D01*
X102362000Y-124206000D02*
X103124000Y-123444000D01*
X103124000Y-123444000D02*
X106680000Y-123444000D01*
X109474000Y-120650000D02*
X112014000Y-118110000D01*
X112014000Y-118110000D02*
X113030000Y-118110000D01*
X113030000Y-118110000D02*
X114300000Y-116840000D01*
X110490000Y-88900000D02*
X110998000Y-89408000D01*
X110998000Y-89408000D02*
X112014000Y-89408000D01*
X112014000Y-89408000D02*
X112776000Y-90170000D01*
X112776000Y-90170000D02*
X133350000Y-90170000D01*
X133350000Y-90170000D02*
X134620000Y-91440000D01*
X134620000Y-91440000D02*
X138430000Y-91440000D01*
X108204000Y-106680000D02*
X114554000Y-113030000D01*
X114554000Y-113030000D02*
X115570000Y-113030000D01*
X115570000Y-113030000D02*
X115570000Y-115570000D01*
X115570000Y-115570000D02*
X116840000Y-116840000D01*
X138430000Y-86360000D02*
X137160000Y-87630000D01*
X137160000Y-87630000D02*
X115570000Y-87630000D01*
X115570000Y-87630000D02*
X114300000Y-86360000D01*
X114300000Y-86360000D02*
X110490000Y-86360000D01*
X113284000Y-100330000D02*
X133350000Y-100330000D01*
X133350000Y-100330000D02*
X134620000Y-101600000D01*
X134620000Y-101600000D02*
X138430000Y-101600000D01*
X114300000Y-104394000D02*
X114300000Y-101346000D01*
X110490000Y-96520000D02*
X111760000Y-97790000D01*
X111760000Y-97790000D02*
X133350000Y-97790000D01*
X133350000Y-97790000D02*
X134620000Y-96520000D01*
X134620000Y-96520000D02*
X138430000Y-96520000D01*
X105156000Y-94234000D02*
X102870000Y-96520000D01*
X122936000Y-111760000D02*
X123698000Y-112522000D01*
X123698000Y-112522000D02*
X124968000Y-112522000D01*
X124968000Y-112522000D02*
X130810000Y-106680000D01*
X130810000Y-106680000D02*
X138176000Y-106680000D01*
X143256000Y-97028000D02*
X143764000Y-96520000D01*
X143764000Y-96520000D02*
X146050000Y-96520000D01*
X119380000Y-119380000D02*
X117094000Y-121666000D01*
X117094000Y-121666000D02*
X85344000Y-121666000D01*
X85344000Y-121666000D02*
X84582000Y-120904000D01*
X84582000Y-120904000D02*
X84328000Y-120904000D01*
X80772000Y-117348000D02*
X83566000Y-114554000D01*
X83566000Y-114554000D02*
X87122000Y-114554000D01*
X87122000Y-114554000D02*
X87376000Y-114300000D01*
X87376000Y-114300000D02*
X89662000Y-114300000D01*
X124460000Y-111760000D02*
X130810000Y-105410000D01*
X130810000Y-105410000D02*
X139700000Y-105410000D01*
X139700000Y-105410000D02*
X141224000Y-103886000D01*
X141224000Y-103886000D02*
X143764000Y-103886000D01*
X146050000Y-106680000D02*
X139700000Y-113030000D01*
X139700000Y-113030000D02*
X138430000Y-113030000D01*
X138430000Y-113030000D02*
X138430000Y-115570000D01*
X138430000Y-115570000D02*
X125730000Y-115570000D01*
X125730000Y-115570000D02*
X124460000Y-114300000D01*
X146050000Y-86360000D02*
X144780000Y-85090000D01*
X144780000Y-85090000D02*
X109220000Y-85090000D01*
X109220000Y-85090000D02*
X108204000Y-86106000D01*
X108204000Y-86106000D02*
X106680000Y-86106000D01*
X105156000Y-87630000D02*
X103886000Y-86360000D01*
X103886000Y-86360000D02*
X102870000Y-86360000D01*
X146050000Y-91440000D02*
X144018000Y-93472000D01*
X142240000Y-99568000D02*
X140462000Y-97790000D01*
X140462000Y-97790000D02*
X137160000Y-97790000D01*
X137160000Y-97790000D02*
X136906000Y-98044000D01*
X136906000Y-98044000D02*
X135382000Y-98044000D01*
X135382000Y-98044000D02*
X134620000Y-98806000D01*
X102870000Y-88900000D02*
X103124000Y-88646000D01*
X103124000Y-88646000D02*
X108204000Y-88646000D01*
X114300000Y-92456000D02*
X114554000Y-92710000D01*
X114554000Y-92710000D02*
X139700000Y-92710000D01*
X139700000Y-92710000D02*
X140970000Y-91440000D01*
X140970000Y-91440000D02*
X146050000Y-91440000D01*
X93726000Y-109220000D02*
X96012000Y-111506000D01*
X96012000Y-111506000D02*
X98298000Y-111506000D01*
X103124000Y-106680000D02*
X103886000Y-105918000D01*
X103886000Y-105918000D02*
X108712000Y-105918000D01*
X108712000Y-105918000D02*
X115316000Y-112522000D01*
X115316000Y-112522000D02*
X116078000Y-112522000D01*
X116078000Y-112522000D02*
X116586000Y-113030000D01*
X116586000Y-113030000D02*
X130810000Y-113030000D01*
X130810000Y-113030000D02*
X132080000Y-114300000D01*
X85852000Y-105664000D02*
X86106000Y-105410000D01*
X86106000Y-105410000D02*
X91440000Y-105410000D01*
X98552000Y-98298000D02*
X99060000Y-97790000D01*
X99060000Y-97790000D02*
X105156000Y-97790000D01*
X114300000Y-119380000D02*
X115570000Y-118110000D01*
X115570000Y-118110000D02*
X130810000Y-118110000D01*
X130810000Y-118110000D02*
X132080000Y-116840000D01*
X84328000Y-122174000D02*
X84582000Y-122428000D01*
X84582000Y-122428000D02*
X117348000Y-122428000D01*
X117348000Y-122428000D02*
X119634000Y-120142000D01*
X119634000Y-120142000D02*
X119888000Y-120142000D01*
X119888000Y-120142000D02*
X121158000Y-118872000D01*
X121158000Y-118872000D02*
X131064000Y-118872000D01*
X131064000Y-118872000D02*
X131826000Y-118110000D01*
X131826000Y-118110000D02*
X133350000Y-118110000D01*
X133350000Y-118110000D02*
X134620000Y-116840000D01*
X144780000Y-111760000D02*
X151130000Y-105410000D01*
X151130000Y-105410000D02*
X152400000Y-105410000D01*
X152400000Y-105410000D02*
X152654000Y-105156000D01*
X152654000Y-105156000D02*
X153924000Y-105156000D01*
X154178000Y-102870000D02*
X158750000Y-98298000D01*
X158750000Y-98298000D02*
X159004000Y-98298000D01*
X159766000Y-91948000D02*
X159766000Y-87122000D01*
X156464000Y-68834000D02*
X151130000Y-63500000D01*
X151130000Y-63500000D02*
X150368000Y-63500000D01*
X150368000Y-63500000D02*
X150368000Y-61722000D01*
X150368000Y-61722000D02*
X145288000Y-56642000D01*
X145288000Y-56642000D02*
X143256000Y-56642000D01*
X140462000Y-52324000D02*
X140208000Y-52070000D01*
X140208000Y-52070000D02*
X138938000Y-52070000D01*
X138938000Y-52070000D02*
X138430000Y-52578000D01*
X138430000Y-52578000D02*
X131572000Y-52578000D01*
X131572000Y-52578000D02*
X130302000Y-53848000D01*
X130302000Y-53848000D02*
X128016000Y-53848000D01*
X128016000Y-53848000D02*
X123444000Y-58420000D01*
X123444000Y-58420000D02*
X116840000Y-58420000D01*
X88900000Y-54610000D02*
X88900000Y-55372000D01*
X88900000Y-55372000D02*
X84074000Y-60198000D01*
X84074000Y-60198000D02*
X81534000Y-60198000D01*
X75438000Y-123190000D02*
X78232000Y-125984000D01*
X78232000Y-125984000D02*
X99314000Y-125984000D01*
X99314000Y-125984000D02*
X100330000Y-124968000D01*
X100330000Y-124968000D02*
X102616000Y-124968000D01*
X102616000Y-124968000D02*
X103378000Y-124206000D01*
X103378000Y-124206000D02*
X107188000Y-124206000D01*
X107188000Y-124206000D02*
X108204000Y-123190000D01*
X108204000Y-123190000D02*
X117602000Y-123190000D01*
X117602000Y-123190000D02*
X119380000Y-121412000D01*
X119380000Y-121412000D02*
X127254000Y-121412000D01*
X134874000Y-100330000D02*
X133604000Y-99060000D01*
X133604000Y-99060000D02*
X132080000Y-99060000D01*
X78740000Y-54610000D02*
X83566000Y-59436000D01*
X77724000Y-126746000D02*
X99568000Y-126746000D01*
X99568000Y-126746000D02*
X100584000Y-125730000D01*
X100584000Y-125730000D02*
X102870000Y-125730000D01*
X102870000Y-125730000D02*
X103632000Y-124968000D01*
X103632000Y-124968000D02*
X107442000Y-124968000D01*
X107442000Y-124968000D02*
X108458000Y-123952000D01*
X108458000Y-123952000D02*
X117856000Y-123952000D01*
X117856000Y-123952000D02*
X119634000Y-122174000D01*
X119634000Y-122174000D02*
X127762000Y-122174000D01*
X127762000Y-122174000D02*
X130302000Y-119634000D01*
X130302000Y-119634000D02*
X131318000Y-119634000D01*
X131318000Y-119634000D02*
X131572000Y-119380000D01*
X131572000Y-119380000D02*
X132080000Y-119380000D01*
X135890000Y-104394000D02*
X133096000Y-101600000D01*
X133096000Y-101600000D02*
X132080000Y-101600000D01*
X162052000Y-92456000D02*
X162052000Y-87884000D01*
X162052000Y-87884000D02*
X159004000Y-84836000D01*
X156464000Y-67310000D02*
X154432000Y-65278000D01*
X149352000Y-51816000D02*
X148082000Y-50546000D01*
X148082000Y-50546000D02*
X128778000Y-50546000D01*
X128778000Y-50546000D02*
X122682000Y-56642000D01*
X122682000Y-56642000D02*
X122428000Y-56642000D01*
X122428000Y-56642000D02*
X121666000Y-57404000D01*
X121666000Y-57404000D02*
X120396000Y-57404000D01*
X122936000Y-57404000D02*
X129032000Y-51308000D01*
X129032000Y-51308000D02*
X140462000Y-51308000D01*
X140462000Y-51308000D02*
X140716000Y-51562000D01*
X140716000Y-51562000D02*
X140970000Y-51562000D01*
X140970000Y-51562000D02*
X143256000Y-53848000D01*
X143256000Y-53848000D02*
X146812000Y-53848000D01*
X146812000Y-53848000D02*
X147066000Y-54102000D01*
X147066000Y-54102000D02*
X147320000Y-54102000D01*
X147320000Y-54102000D02*
X153670000Y-60452000D01*
X153670000Y-60452000D02*
X155448000Y-60452000D01*
X155448000Y-60452000D02*
X156464000Y-61468000D01*
X161036000Y-88392000D02*
X161036000Y-91948000D01*
X160782000Y-97028000D02*
X157734000Y-93980000D01*
X157734000Y-93980000D02*
X154940000Y-93980000D01*
X154940000Y-93980000D02*
X152400000Y-91440000D01*
X152400000Y-91440000D02*
X151130000Y-91440000D01*
X151130000Y-93980000D02*
X147320000Y-90170000D01*
X147320000Y-90170000D02*
X134874000Y-90170000D01*
X126746000Y-93726000D02*
X124714000Y-93726000D01*
X151130000Y-96520000D02*
X156718000Y-96520000D01*
X156718000Y-96520000D02*
X156972000Y-96774000D01*
X156972000Y-96774000D02*
X157226000Y-96774000D01*
X157226000Y-96774000D02*
X157480000Y-97028000D01*
X157480000Y-97028000D02*
X159004000Y-97028000D01*
X148590000Y-68072000D02*
X148590000Y-65024000D01*
X139446000Y-52832000D02*
X138938000Y-53340000D01*
X138938000Y-53340000D02*
X132080000Y-53340000D01*
X133350000Y-49530000D02*
X133604000Y-49784000D01*
X133604000Y-49784000D02*
X152400000Y-49784000D01*
X157734000Y-61214000D02*
X157734000Y-64516000D01*
X160020000Y-84328000D02*
X160020000Y-84836000D01*
X160020000Y-84836000D02*
X162814000Y-87630000D01*
X162814000Y-87630000D02*
X162814000Y-93218000D01*
X162814000Y-93218000D02*
X163068000Y-93472000D01*
X156464000Y-105664000D02*
X155194000Y-106934000D01*
X155194000Y-106934000D02*
X151638000Y-106934000D01*
X173990000Y-88900000D02*
X167894000Y-82804000D01*
X164846000Y-64770000D02*
X161290000Y-61214000D01*
X161290000Y-61214000D02*
X160528000Y-61214000D01*
X160528000Y-61214000D02*
X159258000Y-59944000D01*
X159258000Y-59944000D02*
X157988000Y-59944000D01*
X157988000Y-59944000D02*
X156210000Y-58166000D01*
X154432000Y-53848000D02*
X154432000Y-52578000D01*
X154432000Y-52578000D02*
X153670000Y-51816000D01*
X153670000Y-51816000D02*
X152654000Y-51816000D01*
X149606000Y-48768000D02*
X132842000Y-48768000D01*
X132842000Y-48768000D02*
X131826000Y-49784000D01*
X131826000Y-49784000D02*
X128524000Y-49784000D01*
X128524000Y-49784000D02*
X122428000Y-55880000D01*
X122428000Y-55880000D02*
X116840000Y-55880000D01*
X105664000Y-65786000D02*
X104648000Y-64770000D01*
X104648000Y-64770000D02*
X102362000Y-64770000D01*
X102362000Y-64770000D02*
X102108000Y-64516000D01*
X102108000Y-64516000D02*
X101854000Y-64516000D01*
X101854000Y-64516000D02*
X100838000Y-63500000D01*
X100838000Y-63500000D02*
X82550000Y-63500000D01*
X82550000Y-63500000D02*
X81280000Y-62230000D01*
X81280000Y-62230000D02*
X78740000Y-62230000D01*
X132080000Y-83820000D02*
X131826000Y-84074000D01*
X131826000Y-84074000D02*
X122936000Y-84074000D01*
X121158000Y-88646000D02*
X120650000Y-89154000D01*
X120650000Y-89154000D02*
X118872000Y-89154000D01*
X119888000Y-106680000D02*
X113030000Y-106680000D01*
X110490000Y-104140000D02*
X109220000Y-102870000D01*
X109220000Y-102870000D02*
X101600000Y-102870000D01*
X101600000Y-102870000D02*
X96774000Y-98044000D01*
X96774000Y-98044000D02*
X85852000Y-98044000D01*
X138430000Y-81280000D02*
X138938000Y-80772000D01*
X138938000Y-80772000D02*
X140208000Y-80772000D01*
X140208000Y-80772000D02*
X141986000Y-78994000D01*
X141986000Y-78994000D02*
X142240000Y-78994000D01*
X142240000Y-78994000D02*
X143002000Y-78232000D01*
X143002000Y-78232000D02*
X143764000Y-78232000D01*
X143764000Y-78232000D02*
X144018000Y-77978000D01*
X144018000Y-77978000D02*
X144018000Y-76708000D01*
X144018000Y-76708000D02*
X142494000Y-75184000D01*
X140462000Y-64770000D02*
X138430000Y-62738000D01*
X134874000Y-57150000D02*
X130810000Y-57150000D01*
X130810000Y-57150000D02*
X120650000Y-67310000D01*
X120650000Y-67310000D02*
X115570000Y-67310000D01*
X115570000Y-67310000D02*
X114554000Y-68326000D01*
X114554000Y-68326000D02*
X114300000Y-68326000D01*
X113030000Y-70104000D02*
X112014000Y-71120000D01*
X112014000Y-71120000D02*
X109728000Y-71120000D01*
X109728000Y-71120000D02*
X108458000Y-72390000D01*
X108458000Y-72390000D02*
X104648000Y-72390000D01*
X104648000Y-72390000D02*
X99314000Y-77724000D01*
X140462000Y-83312000D02*
X140970000Y-83820000D01*
X140970000Y-83820000D02*
X146050000Y-83820000D01*
X102870000Y-83820000D02*
X106680000Y-87630000D01*
X106680000Y-87630000D02*
X111760000Y-87630000D01*
X111760000Y-87630000D02*
X113030000Y-88900000D01*
X113030000Y-88900000D02*
X116840000Y-88900000D01*
X110490000Y-101600000D02*
X113030000Y-99060000D01*
X113030000Y-99060000D02*
X116840000Y-99060000D01*
X102870000Y-91440000D02*
X104140000Y-90170000D01*
X104140000Y-90170000D02*
X111760000Y-90170000D01*
X111760000Y-90170000D02*
X113030000Y-91440000D01*
X113030000Y-91440000D02*
X116840000Y-91440000D01*
X102870000Y-93980000D02*
X104140000Y-92710000D01*
X104140000Y-92710000D02*
X111760000Y-92710000D01*
X111760000Y-92710000D02*
X113030000Y-93980000D01*
X113030000Y-93980000D02*
X116840000Y-93980000D01*
X116840000Y-96520000D02*
X115570000Y-95250000D01*
X115570000Y-95250000D02*
X109220000Y-95250000D01*
X109220000Y-95250000D02*
X102870000Y-101600000D01*
X132080000Y-104140000D02*
X130810000Y-102870000D01*
X130810000Y-102870000D02*
X127508000Y-102870000D01*
X126746000Y-99314000D02*
X126238000Y-98806000D01*
X126238000Y-98806000D02*
X124714000Y-98806000D01*
X122682000Y-96774000D02*
X119634000Y-93726000D01*
X119634000Y-93726000D02*
X118872000Y-93726000D01*
X140716000Y-69850000D02*
X139700000Y-68834000D01*
X139700000Y-68834000D02*
X139700000Y-68580000D01*
X139700000Y-68580000D02*
X137160000Y-68580000D01*
X137160000Y-68580000D02*
X132080000Y-63500000D01*
X146050000Y-88900000D02*
X143256000Y-86106000D01*
X143256000Y-86106000D02*
X142240000Y-86106000D01*
X141732000Y-78232000D02*
X139954000Y-80010000D01*
X139954000Y-80010000D02*
X130810000Y-80010000D01*
X130810000Y-80010000D02*
X130556000Y-79756000D01*
X130556000Y-79756000D02*
X130048000Y-79756000D01*
X138430000Y-93980000D02*
X138176000Y-93726000D01*
X138176000Y-93726000D02*
X135890000Y-93726000D01*
X134620000Y-63500000D02*
X132080000Y-60960000D01*
X143256000Y-77470000D02*
X139700000Y-73914000D01*
X139700000Y-73914000D02*
X139700000Y-73660000D01*
X139700000Y-73660000D02*
X137160000Y-73660000D01*
X137160000Y-73660000D02*
X136652000Y-74168000D01*
X136652000Y-74168000D02*
X135636000Y-74168000D01*
X135636000Y-74168000D02*
X134874000Y-74930000D01*
X134874000Y-74930000D02*
X130810000Y-74930000D01*
X130810000Y-74930000D02*
X130048000Y-74168000D01*
X138430000Y-88900000D02*
X138176000Y-88646000D01*
X138176000Y-88646000D02*
X135890000Y-88646000D01*
X127254000Y-73406000D02*
X124714000Y-75946000D01*
X124714000Y-88646000D02*
X125222000Y-89154000D01*
X125222000Y-89154000D02*
X127254000Y-89154000D01*
X134620000Y-93980000D02*
X135890000Y-95250000D01*
X135890000Y-95250000D02*
X139700000Y-95250000D01*
X139700000Y-95250000D02*
X143510000Y-99060000D01*
X143510000Y-99060000D02*
X146050000Y-99060000D01*
X135890000Y-83566000D02*
X136144000Y-83820000D01*
X136144000Y-83820000D02*
X138430000Y-83820000D01*
X132080000Y-66040000D02*
X126746000Y-71374000D01*
X126746000Y-71374000D02*
X124714000Y-71374000D01*
X124714000Y-91186000D02*
X125222000Y-91694000D01*
X125222000Y-91694000D02*
X127254000Y-91694000D01*
X135890000Y-98806000D02*
X137160000Y-100076000D01*
X137160000Y-100076000D02*
X137160000Y-100330000D01*
X137160000Y-100330000D02*
X139700000Y-100330000D01*
X139700000Y-100330000D02*
X140462000Y-101092000D01*
X139550000Y-55190000D02*
X139446000Y-55118000D01*
X139446000Y-55118000D02*
X134874000Y-59690000D01*
X134874000Y-59690000D02*
X130810000Y-59690000D01*
X130810000Y-59690000D02*
X130048000Y-60452000D01*
X125730000Y-86106000D02*
X125984000Y-86360000D01*
X125984000Y-86360000D02*
X132080000Y-86360000D01*
X146050000Y-55190000D02*
X146050000Y-55118000D01*
X146050000Y-55118000D02*
X139446000Y-55118000D01*
X139446000Y-55118000D02*
X139550000Y-55190000D01*
X127254000Y-101346000D02*
X123190000Y-105410000D01*
X123190000Y-105410000D02*
X101600000Y-105410000D01*
X101600000Y-105410000D02*
X95250000Y-99060000D01*
X95250000Y-99060000D02*
X89408000Y-99060000D01*
X116840000Y-66040000D02*
X128270000Y-54610000D01*
X128270000Y-54610000D02*
X133350000Y-54610000D01*
X133350000Y-54610000D02*
X133858000Y-55118000D01*
X133858000Y-55118000D02*
X137160000Y-55118000D01*
X162560000Y-74930000D02*
X160020000Y-72390000D01*
X160020000Y-72390000D02*
X159940000Y-72390000D01*
X159940000Y-72390000D02*
X160020000Y-72390000D01*
X160020000Y-72390000D02*
X158750000Y-71120000D01*
X158750000Y-71120000D02*
X154432000Y-71120000D01*
X154432000Y-71120000D02*
X154178000Y-71374000D01*
X154178000Y-71374000D02*
X153924000Y-71374000D01*
X153924000Y-71374000D02*
X152908000Y-72390000D01*
X152908000Y-72390000D02*
X146050000Y-72390000D01*
X107950000Y-63500000D02*
X114300000Y-69850000D01*
X114300000Y-69850000D02*
X118110000Y-69850000D01*
X118110000Y-69850000D02*
X120650000Y-72390000D01*
X120650000Y-72390000D02*
X138430000Y-72390000D01*
X138430000Y-72390000D02*
X139700000Y-71120000D01*
X139700000Y-71120000D02*
X147320000Y-71120000D01*
X147320000Y-71120000D02*
X148590000Y-69850000D01*
X148590000Y-69850000D02*
X160782000Y-69850000D01*
X163068000Y-67564000D02*
X163322000Y-67310000D01*
X163322000Y-67310000D02*
X166290000Y-67310000D01*
X146050000Y-77470000D02*
X144780000Y-76200000D01*
X144780000Y-76200000D02*
X144780000Y-75946000D01*
X144780000Y-75946000D02*
X143764000Y-74930000D01*
X142494000Y-70104000D02*
X141986000Y-70612000D01*
X141986000Y-70612000D02*
X140208000Y-70612000D01*
X140208000Y-70612000D02*
X139446000Y-69850000D01*
X139446000Y-69850000D02*
X138430000Y-69850000D01*
M02*
