M48
;DRILL file {KiCad 4.0.7} date 03/30/18 14:47:48
;FORMAT={-:-/ absolute / inch / decimal}
FMAT,2
INCH,TZ
T1C0.016
T2C0.031
T3C0.035
T4C0.039
T5C0.043
T6C0.051
%
G90
G05
M72
T1
X2.97Y-4.85
X2.98Y-3.96
X2.98Y-4.66
X3.03Y-4.76
X3.03Y-4.81
X3.06Y-4.99
X3.09Y-4.92
X3.18Y-4.62
X3.21Y-2.37
X3.27Y-4.21
X3.29Y-2.34
X3.29Y-4.05
X3.32Y-4.76
X3.32Y-4.81
X3.38Y-4.76
X3.48Y-4.26
X3.49Y-4.01
X3.49Y-4.6
X3.52Y-3.9
X3.53Y-4.5
X3.53Y-4.62
X3.6Y-4.15
X3.62Y-4.52
X3.62Y-4.62
X3.69Y-4.3
X3.87Y-4.39
X3.88Y-3.87
X3.89Y-4.93
X3.91Y-3.06
X3.91Y-4.71
X3.94Y-4.4
X4.01Y-4.75
X4.01Y-4.86
X4.06Y-4.2
X4.11Y-4.7
X4.14Y-3.45
X4.14Y-3.71
X4.14Y-3.85
X4.16Y-2.59
X4.19Y-4.7
X4.2Y-3.39
X4.2Y-4.4
X4.2Y-4.86
X4.25Y-3.1
X4.26Y-3.49
X4.26Y-4.2
X4.3Y-4.7
X4.31Y-4.75
X4.34Y-2.83
X4.44Y-3.05
X4.45Y-2.76
X4.45Y-3.1
X4.45Y-4.2
X4.46Y-3.95
X4.5Y-2.69
X4.5Y-3.64
X4.5Y-3.99
X4.5Y-4.11
X4.5Y-4.7
X4.68Y-3.18
X4.68Y-3.51
X4.68Y-3.69
X4.7Y-4.7
X4.72Y-4.2
X4.74Y-2.26
X4.77Y-3.49
X4.83Y-3.81
X4.84Y-2.26
X4.84Y-3.31
X4.84Y-4.4
X4.9Y-4.4
X4.91Y-2.81
X4.91Y-2.99
X4.91Y-3.49
X4.91Y-3.59
X4.91Y-3.69
X4.91Y-3.89
X4.95Y-3.39
X4.99Y-3.69
X4.99Y-3.91
X5.01Y-2.89
X5.01Y-3.51
X5.01Y-3.61
X5.01Y-3.99
X5.01Y-4.78
X5.02Y-4.05
X5.12Y-2.38
X5.12Y-2.92
X5.12Y-3.14
X5.2Y-2.1
X5.2Y-4.7
X5.25Y-1.95
X5.3Y-2.5
X5.3Y-3.7
X5.3Y-3.89
X5.31Y-2.25
X5.31Y-3.55
X5.31Y-3.95
X5.35Y-3.29
X5.35Y-3.49
X5.35Y-3.69
X5.35Y-3.89
X5.35Y-4.11
X5.4Y-2.17
X5.44Y-4.2
X5.45Y-2.47
X5.49Y-2.08
X5.53Y-2.06
X5.53Y-2.55
X5.53Y-3.28
X5.53Y-3.98
X5.54Y-2.75
X5.58Y-3.08
X5.6Y-3.39
X5.6Y-3.92
X5.61Y-2.76
X5.61Y-2.96
X5.64Y-2.23
X5.64Y-3.05
X5.64Y-3.82
X5.66Y-2.95
X5.66Y-4.09
X5.67Y-3.68
X5.7Y-4.4
X5.75Y-3.05
X5.75Y-4.2
X5.85Y-2.56
X5.85Y-2.68
X5.88Y-2.04
X5.89Y-1.92
X5.89Y-2.1
X5.97Y-4.21
X6.Y-1.96
X6.01Y-2.04
X6.06Y-4.14
X6.07Y-4.05
X6.08Y-2.12
X6.08Y-2.57
X6.15Y-2.29
X6.16Y-2.42
X6.16Y-2.65
X6.16Y-2.71
X6.16Y-4.16
X6.21Y-2.41
X6.21Y-2.54
X6.26Y-3.34
X6.26Y-3.82
X6.26Y-3.87
X6.29Y-3.43
X6.29Y-3.62
X6.3Y-3.32
X6.33Y-2.75
X6.33Y-3.82
X6.34Y-3.48
X6.34Y-3.62
X6.38Y-3.64
X6.4Y-2.95
X6.42Y-2.66
X6.42Y-3.68
X6.49Y-2.55
X6.61Y-3.26
T2
X3.08Y-3.56
X3.08Y-3.66
X3.08Y-3.76
X3.08Y-3.86
X3.08Y-3.96
X3.08Y-4.06
X3.08Y-4.16
X3.08Y-4.26
X3.08Y-4.36
X3.08Y-4.46
X3.08Y-4.56
X3.08Y-4.66
X3.1Y-2.45
X3.1Y-2.95
X3.15Y-3.25
X3.3Y-2.45
X3.3Y-2.95
X3.3469Y-3.25
X3.38Y-3.56
X3.38Y-3.66
X3.38Y-3.76
X3.38Y-3.86
X3.38Y-3.96
X3.38Y-4.06
X3.38Y-4.16
X3.38Y-4.26
X3.38Y-4.36
X3.38Y-4.46
X3.38Y-4.56
X3.38Y-4.66
X3.5Y-2.45
X3.5Y-2.95
X3.95Y-2.7031
X3.95Y-2.9
X4.05Y-2.
X4.05Y-2.5
X4.05Y-3.2
X4.05Y-3.3
X4.05Y-3.4
X4.05Y-3.5
X4.05Y-3.6
X4.05Y-3.7
X4.05Y-3.8
X4.05Y-3.9
X4.05Y-4.
X4.05Y-4.1
X4.25Y-2.
X4.25Y-2.5
X4.35Y-2.7031
X4.35Y-2.9
X4.35Y-3.2
X4.35Y-3.3
X4.35Y-3.4
X4.35Y-3.5
X4.35Y-3.6
X4.35Y-3.7
X4.35Y-3.8
X4.35Y-3.9
X4.35Y-4.
X4.35Y-4.1
X4.6Y-2.2
X4.6Y-2.3
X4.6Y-2.4
X4.6Y-2.5
X4.6Y-2.6
X4.6Y-2.7
X4.6Y-2.8
X4.6Y-2.9
X4.6Y-3.
X4.6Y-3.1
X4.6Y-3.2
X4.6Y-3.3
X4.6Y-3.4
X4.6Y-3.5
X4.6Y-3.6
X4.6Y-3.7
X4.6Y-3.8
X4.6Y-3.9
X4.6Y-4.
X4.6Y-4.1
X5.2Y-2.2
X5.2Y-2.3
X5.2Y-2.4
X5.2Y-2.5
X5.2Y-2.6
X5.2Y-2.7
X5.2Y-2.8
X5.2Y-2.9
X5.2Y-3.
X5.2Y-3.1
X5.2Y-3.2
X5.2Y-3.3
X5.2Y-3.4
X5.2Y-3.5
X5.2Y-3.6
X5.2Y-3.7
X5.2Y-3.8
X5.2Y-3.9
X5.2Y-4.
X5.2Y-4.1
X5.45Y-2.65
X5.45Y-2.75
X5.45Y-2.85
X5.45Y-2.95
X5.45Y-3.2
X5.45Y-3.3
X5.45Y-3.4
X5.45Y-3.5
X5.45Y-3.6
X5.45Y-3.7
X5.45Y-3.8
X5.45Y-3.9
X5.45Y-4.
X5.45Y-4.1
X5.75Y-2.65
X5.75Y-2.75
X5.75Y-2.85
X5.75Y-2.95
X5.75Y-3.2
X5.75Y-3.3
X5.75Y-3.4
X5.75Y-3.5
X5.75Y-3.6
X5.75Y-3.7
X5.75Y-3.8
X5.75Y-3.9
X5.75Y-4.
X5.75Y-4.1
X6.1Y-2.85
X6.1Y-3.05
X6.15Y-3.45
X6.15Y-3.65
X6.15Y-3.85
X6.15Y-4.05
X6.2969Y-2.85
X6.2969Y-3.05
X6.35Y-2.65
X6.5469Y-2.65
X6.6031Y-2.85
X6.6031Y-3.05
X6.65Y-3.45
X6.65Y-3.65
X6.65Y-3.85
X6.65Y-4.05
X6.8Y-2.85
X6.8Y-3.05
T3
X3.1Y-2.15
X3.2Y-2.15
X3.4Y-2.15
X3.5Y-2.15
T4
X3.7Y-4.5
X3.7Y-4.6
X3.8Y-4.5
X3.8Y-4.6
X3.9Y-4.5
X3.9Y-4.6
X4.Y-4.5
X4.Y-4.6
X4.1Y-4.5
X4.1Y-4.6
X4.15Y-2.7031
X4.15Y-2.9
X4.2Y-4.5
X4.2Y-4.6
X4.3Y-4.5
X4.3Y-4.6
X4.4Y-4.5
X4.4Y-4.6
X4.5Y-4.5
X4.5Y-4.6
X4.6Y-4.5
X4.6Y-4.6
X4.7Y-4.5
X4.7Y-4.6
X4.8Y-4.5
X4.8Y-4.6
X4.9Y-4.5
X4.9Y-4.6
X5.Y-4.5
X5.Y-4.6
X5.1Y-4.5
X5.1Y-4.6
X5.2Y-4.5
X5.2Y-4.6
X5.3Y-4.5
X5.3Y-4.6
X5.4Y-4.5
X5.4Y-4.6
X5.5Y-4.5
X5.5Y-4.6
X5.6Y-4.5
X5.6Y-4.6
X5.7Y-4.5
X5.7Y-4.6
X5.8Y-4.5
X5.8Y-4.6
X5.9Y-4.5
X5.9Y-4.6
X5.95Y-3.4
X5.95Y-3.5
X5.95Y-3.6
X5.95Y-3.7
X5.95Y-3.8
X5.95Y-3.9
X5.95Y-4.
X5.95Y-4.1
X6.Y-4.5
X6.Y-4.6
X6.1Y-4.5
X6.1Y-4.6
X6.85Y-3.4
X6.85Y-3.5
X6.85Y-3.6
X6.85Y-3.7
X6.85Y-3.8
X6.85Y-3.9
X6.85Y-4.
X6.85Y-4.1
T5
X5.4941Y-2.1728
X5.4941Y-2.35
X5.75Y-2.1728
X5.75Y-2.35
T6
X6.Y-2.15
X6.0197Y-2.4374
X6.1811Y-1.9965
X6.2795Y-2.2642
X6.3858Y-2.3114
X6.55Y-2.15
X6.5697Y-2.4374
X6.7311Y-1.9965
X6.8295Y-2.2642
X6.9358Y-2.3114
T0
M30
